<?xml version="1.0" encoding="UTF-8"?>
<svg id="Layer_1" data-name="Layer 1" xmlns="http://www.w3.org/2000/svg" viewBox="0 0 481.52 595.2">
  <defs>
    <style>
      .cls-1 {
        fill: none;
        stroke: #006838;
        stroke-miterlimit: 10;
        stroke-width: .76px;
      }
    </style>
  </defs>
  <polygon class="cls-1" points="20.69 566.58 .49 542.46 20.69 518.33 61.1 518.33 81.3 542.46 61.1 566.58 20.69 566.58"/>
  <polygon class="cls-1" points="20.69 512.02 .49 487.89 20.69 463.76 61.1 463.76 81.3 487.89 61.1 512.02 20.69 512.02"/>
  <polygon class="cls-1" points="20.69 457.46 .49 433.33 20.69 409.2 61.1 409.2 81.3 433.33 61.1 457.46 20.69 457.46"/>
  <polygon class="cls-1" points="20.69 402.9 .49 378.77 20.69 354.64 61.1 354.64 81.3 378.77 61.1 402.9 20.69 402.9"/>
  <polygon class="cls-1" points="20.69 348.33 .49 324.21 20.69 300.08 61.1 300.08 81.3 324.21 61.1 348.33 20.69 348.33"/>
  <polygon class="cls-1" points="20.69 293.77 .49 269.64 20.69 245.51 61.1 245.51 81.3 269.64 61.1 293.77 20.69 293.77"/>
  <polygon class="cls-1" points="20.69 239.21 .49 215.08 20.69 190.95 61.1 190.95 81.3 215.08 61.1 239.21 20.69 239.21"/>
  <polygon class="cls-1" points="20.69 184.65 .49 160.52 20.69 136.39 61.1 136.39 81.3 160.52 61.1 184.65 20.69 184.65"/>
  <polygon class="cls-1" points="20.69 130.08 .49 105.96 20.69 81.83 61.1 81.83 81.3 105.96 61.1 130.08 20.69 130.08"/>
  <polygon class="cls-1" points="20.69 75.52 .49 51.39 20.69 27.27 61.1 27.27 81.3 51.39 61.1 75.52 20.69 75.52"/>
  <polygon class="cls-1" points="87.85 594.26 67.65 570.13 87.85 546 128.25 546 148.45 570.13 128.25 594.26 87.85 594.26"/>
  <polygon class="cls-1" points="87.85 539.7 67.65 515.57 87.85 491.44 128.25 491.44 148.45 515.57 128.25 539.7 87.85 539.7"/>
  <polygon class="cls-1" points="87.85 485.14 67.65 461.01 87.85 436.88 128.25 436.88 148.45 461.01 128.25 485.14 87.85 485.14"/>
  <polygon class="cls-1" points="87.85 430.57 67.65 406.44 87.85 382.32 128.25 382.32 148.45 406.44 128.25 430.57 87.85 430.57"/>
  <polygon class="cls-1" points="87.85 376.01 67.65 351.88 87.85 327.75 128.25 327.75 148.45 351.88 128.25 376.01 87.85 376.01"/>
  <polygon class="cls-1" points="87.85 321.45 67.65 297.32 87.85 273.19 128.25 273.19 148.45 297.32 128.25 321.45 87.85 321.45"/>
  <polygon class="cls-1" points="87.85 266.89 67.65 242.76 87.85 218.63 128.25 218.63 148.45 242.76 128.25 266.89 87.85 266.89"/>
  <polygon class="cls-1" points="87.85 212.32 67.65 188.19 87.85 164.07 128.25 164.07 148.45 188.19 128.25 212.32 87.85 212.32"/>
  <polygon class="cls-1" points="87.85 157.76 67.65 133.63 87.85 109.5 128.25 109.5 148.45 133.63 128.25 157.76 87.85 157.76"/>
  <polygon class="cls-1" points="87.85 103.2 67.65 79.07 87.85 54.94 128.25 54.94 148.45 79.07 128.25 103.2 87.85 103.2"/>
  <polygon class="cls-1" points="87.85 48.64 67.65 24.51 87.85 .38 128.25 .38 148.45 24.51 128.25 48.64 87.85 48.64"/>
  <polygon class="cls-1" points="153.94 566.98 133.74 542.85 153.94 518.72 194.34 518.72 214.54 542.85 194.34 566.98 153.94 566.98"/>
  <polygon class="cls-1" points="153.94 512.42 133.74 488.29 153.94 464.16 194.34 464.16 214.54 488.29 194.34 512.42 153.94 512.42"/>
  <polygon class="cls-1" points="153.94 457.85 133.74 433.73 153.94 409.6 194.34 409.6 214.54 433.73 194.34 457.85 153.94 457.85"/>
  <polygon class="cls-1" points="153.94 403.29 133.74 379.16 153.94 355.04 194.34 355.04 214.54 379.16 194.34 403.29 153.94 403.29"/>
  <polygon class="cls-1" points="153.94 348.73 133.74 324.6 153.94 300.47 194.34 300.47 214.54 324.6 194.34 348.73 153.94 348.73"/>
  <polygon class="cls-1" points="153.94 294.17 133.74 270.04 153.94 245.91 194.34 245.91 214.54 270.04 194.34 294.17 153.94 294.17"/>
  <polygon class="cls-1" points="153.94 239.61 133.74 215.48 153.94 191.35 194.34 191.35 214.54 215.48 194.34 239.61 153.94 239.61"/>
  <polygon class="cls-1" points="153.94 185.04 133.74 160.91 153.94 136.79 194.34 136.79 214.54 160.91 194.34 185.04 153.94 185.04"/>
  <polygon class="cls-1" points="153.94 130.48 133.74 106.35 153.94 82.22 194.34 82.22 214.54 106.35 194.34 130.48 153.94 130.48"/>
  <polygon class="cls-1" points="153.94 75.92 133.74 51.79 153.94 27.66 194.34 27.66 214.54 51.79 194.34 75.92 153.94 75.92"/>
  <polygon class="cls-1" points="221.09 594.66 200.89 570.53 221.09 546.4 261.49 546.4 281.69 570.53 261.49 594.66 221.09 594.66"/>
  <polygon class="cls-1" points="221.09 540.09 200.89 515.96 221.09 491.84 261.49 491.84 281.69 515.96 261.49 540.09 221.09 540.09"/>
  <polygon class="cls-1" points="221.09 485.53 200.89 461.4 221.09 437.27 261.49 437.27 281.69 461.4 261.49 485.53 221.09 485.53"/>
  <polygon class="cls-1" points="221.09 430.97 200.89 406.84 221.09 382.71 261.49 382.71 281.69 406.84 261.49 430.97 221.09 430.97"/>
  <polygon class="cls-1" points="221.09 376.41 200.89 352.28 221.09 328.15 261.49 328.15 281.69 352.28 261.49 376.41 221.09 376.41"/>
  <polygon class="cls-1" points="221.09 321.84 200.89 297.72 221.09 273.59 261.49 273.59 281.69 297.72 261.49 321.84 221.09 321.84"/>
  <polygon class="cls-1" points="221.09 267.28 200.89 243.15 221.09 219.02 261.49 219.02 281.69 243.15 261.49 267.28 221.09 267.28"/>
  <polygon class="cls-1" points="221.09 212.72 200.89 188.59 221.09 164.46 261.49 164.46 281.69 188.59 261.49 212.72 221.09 212.72"/>
  <polygon class="cls-1" points="221.09 158.16 200.89 134.03 221.09 109.9 261.49 109.9 281.69 134.03 261.49 158.16 221.09 158.16"/>
  <polygon class="cls-1" points="221.09 103.59 200.89 79.47 221.09 55.34 261.49 55.34 281.69 79.47 261.49 103.59 221.09 103.59"/>
  <polygon class="cls-1" points="221.09 49.03 200.89 24.9 221.09 .77 261.49 .77 281.69 24.9 261.49 49.03 221.09 49.03"/>
  <polygon class="cls-1" points="287.18 567.14 266.98 543.01 287.18 518.88 327.58 518.88 347.78 543.01 327.58 567.14 287.18 567.14"/>
  <polygon class="cls-1" points="287.18 512.58 266.98 488.45 287.18 464.32 327.58 464.32 347.78 488.45 327.58 512.58 287.18 512.58"/>
  <polygon class="cls-1" points="287.18 458.02 266.98 433.89 287.18 409.76 327.58 409.76 347.78 433.89 327.58 458.02 287.18 458.02"/>
  <polygon class="cls-1" points="287.18 403.45 266.98 379.32 287.18 355.2 327.58 355.2 347.78 379.32 327.58 403.45 287.18 403.45"/>
  <polygon class="cls-1" points="287.18 348.89 266.98 324.76 287.18 300.63 327.58 300.63 347.78 324.76 327.58 348.89 287.18 348.89"/>
  <polygon class="cls-1" points="287.18 294.33 266.98 270.2 287.18 246.07 327.58 246.07 347.78 270.2 327.58 294.33 287.18 294.33"/>
  <polygon class="cls-1" points="287.18 239.77 266.98 215.64 287.18 191.51 327.58 191.51 347.78 215.64 327.58 239.77 287.18 239.77"/>
  <polygon class="cls-1" points="287.18 185.2 266.98 161.08 287.18 136.95 327.58 136.95 347.78 161.08 327.58 185.2 287.18 185.2"/>
  <polygon class="cls-1" points="287.18 130.64 266.98 106.51 287.18 82.38 327.58 82.38 347.78 106.51 327.58 130.64 287.18 130.64"/>
  <polygon class="cls-1" points="287.18 76.08 266.98 51.95 287.18 27.82 327.58 27.82 347.78 51.95 327.58 76.08 287.18 76.08"/>
  <polygon class="cls-1" points="354.33 594.82 334.13 570.69 354.33 546.56 394.73 546.56 414.93 570.69 394.73 594.82 354.33 594.82"/>
  <polygon class="cls-1" points="354.33 540.25 334.13 516.13 354.33 492 394.73 492 414.93 516.13 394.73 540.25 354.33 540.25"/>
  <polygon class="cls-1" points="354.33 485.69 334.13 461.56 354.33 437.44 394.73 437.44 414.93 461.56 394.73 485.69 354.33 485.69"/>
  <polygon class="cls-1" points="354.33 431.13 334.13 407 354.33 382.87 394.73 382.87 414.93 407 394.73 431.13 354.33 431.13"/>
  <polygon class="cls-1" points="354.33 376.57 334.13 352.44 354.33 328.31 394.73 328.31 414.93 352.44 394.73 376.57 354.33 376.57"/>
  <polygon class="cls-1" points="354.33 322 334.13 297.88 354.33 273.75 394.73 273.75 414.93 297.88 394.73 322 354.33 322"/>
  <polygon class="cls-1" points="354.33 267.44 334.13 243.31 354.33 219.19 394.73 219.19 414.93 243.31 394.73 267.44 354.33 267.44"/>
  <polygon class="cls-1" points="354.33 212.88 334.13 188.75 354.33 164.62 394.73 164.62 414.93 188.75 394.73 212.88 354.33 212.88"/>
  <polygon class="cls-1" points="354.33 158.32 334.13 134.19 354.33 110.06 394.73 110.06 414.93 134.19 394.73 158.32 354.33 158.32"/>
  <polygon class="cls-1" points="354.33 103.75 334.13 79.63 354.33 55.5 394.73 55.5 414.93 79.63 394.73 103.75 354.33 103.75"/>
  <polygon class="cls-1" points="354.33 49.19 334.13 25.06 354.33 .94 394.73 .94 414.93 25.06 394.73 49.19 354.33 49.19"/>
  <polygon class="cls-1" points="420.42 567.54 400.22 543.41 420.42 519.28 460.82 519.28 481.02 543.41 460.82 567.54 420.42 567.54"/>
  <polygon class="cls-1" points="420.42 512.97 400.22 488.85 420.42 464.72 460.82 464.72 481.02 488.85 460.82 512.97 420.42 512.97"/>
  <polygon class="cls-1" points="420.42 458.41 400.22 434.28 420.42 410.15 460.82 410.15 481.02 434.28 460.82 458.41 420.42 458.41"/>
  <polygon class="cls-1" points="420.42 403.85 400.22 379.72 420.42 355.59 460.82 355.59 481.02 379.72 460.82 403.85 420.42 403.85"/>
  <polygon class="cls-1" points="420.42 349.29 400.22 325.16 420.42 301.03 460.82 301.03 481.02 325.16 460.82 349.29 420.42 349.29"/>
  <polygon class="cls-1" points="420.42 294.72 400.22 270.6 420.42 246.47 460.82 246.47 481.02 270.6 460.82 294.72 420.42 294.72"/>
  <polygon class="cls-1" points="420.42 240.16 400.22 216.03 420.42 191.9 460.82 191.9 481.02 216.03 460.82 240.16 420.42 240.16"/>
  <polygon class="cls-1" points="420.42 185.6 400.22 161.47 420.42 137.34 460.82 137.34 481.02 161.47 460.82 185.6 420.42 185.6"/>
  <polygon class="cls-1" points="420.42 131.04 400.22 106.91 420.42 82.78 460.82 82.78 481.02 106.91 460.82 131.04 420.42 131.04"/>
  <polygon class="cls-1" points="420.42 76.47 400.22 52.35 420.42 28.22 460.82 28.22 481.02 52.35 460.82 76.47 420.42 76.47"/>
</svg>