<svg id="Layer_1" data-name="Layer 1" xmlns="http://www.w3.org/2000/svg" xmlns:xlink="http://www.w3.org/1999/xlink" viewBox="0 0 843.3 1125.97"><defs><style>.cls-1,.cls-10,.cls-12,.cls-14,.cls-28,.cls-39,.cls-4,.cls-9{fill:none;}.cls-2{clip-path:url(#clip-path);}.cls-3{fill:url(#linear-gradient);}.cls-12,.cls-14,.cls-28,.cls-39,.cls-4,.cls-9{stroke:#231f20;}.cls-10,.cls-12,.cls-14,.cls-28,.cls-39,.cls-4,.cls-9{stroke-miterlimit:10;}.cls-4{stroke-width:0.5px;}.cls-5{clip-path:url(#clip-path-2);}.cls-15,.cls-20,.cls-36,.cls-38,.cls-40,.cls-6{fill:#231f20;}.cls-11,.cls-13,.cls-21,.cls-29,.cls-60,.cls-7{fill:#fff;}.cls-8{fill:#010101;}.cls-10{stroke:#010101;stroke-width:1.4px;}.cls-11{font-size:15px;}.cls-11,.cls-13,.cls-15,.cls-20,.cls-21,.cls-36,.cls-38,.cls-40,.cls-60{font-family:UniformCondensedRegular-Regular, Uniform Condensed Regular;}.cls-12{stroke-width:0.43px;}.cls-13,.cls-38{font-size:12px;}.cls-14{stroke-width:1.51px;}.cls-15,.cls-21{font-size:10px;}.cls-16{letter-spacing:-0.01em;}.cls-17{letter-spacing:0em;}.cls-18{letter-spacing:-0.01em;}.cls-19{letter-spacing:0em;}.cls-20{font-size:15.91px;}.cls-22{letter-spacing:-0.02em;}.cls-23{letter-spacing:0em;}.cls-24{letter-spacing:-0.12em;}.cls-25{letter-spacing:-0.01em;}.cls-26{letter-spacing:-0.06em;}.cls-27{letter-spacing:-0.02em;}.cls-28{stroke-width:0.91px;}.cls-29{font-size:10.32px;font-family:MyriadPro-Regular, Myriad Pro;}.cls-30{letter-spacing:-0.07em;}.cls-31{letter-spacing:0em;}.cls-32{letter-spacing:0.01em;}.cls-33{letter-spacing:-0.01em;}.cls-34{letter-spacing:-0.01em;}.cls-35{letter-spacing:0em;}.cls-36{font-size:8.6px;}.cls-37{letter-spacing:0em;}.cls-39{stroke-width:0.98px;}.cls-40{font-size:9.96px;}.cls-41{letter-spacing:-0.01em;}.cls-42{letter-spacing:0em;}.cls-43{letter-spacing:-0.01em;}.cls-44{letter-spacing:0em;}.cls-45{letter-spacing:0.01em;}.cls-46{letter-spacing:0.05em;}.cls-47{letter-spacing:-0.02em;}.cls-48{letter-spacing:-0.01em;}.cls-49{letter-spacing:-0.02em;}.cls-50{letter-spacing:-0.02em;}.cls-51{letter-spacing:0em;}.cls-52{letter-spacing:-0.01em;}.cls-53{letter-spacing:0.01em;}.cls-54{letter-spacing:0em;}.cls-55{letter-spacing:-0.01em;}.cls-56{letter-spacing:-0.02em;}.cls-57{letter-spacing:0.01em;}.cls-58{letter-spacing:0em;}.cls-59{letter-spacing:-0.02em;}.cls-60{font-size:20.86px;}.cls-61{letter-spacing:-0.06em;}.cls-62{letter-spacing:-0.02em;}.cls-63{letter-spacing:-0.01em;}.cls-64{letter-spacing:-0.01em;}.cls-65{letter-spacing:-0.01em;}</style><clipPath id="clip-path" transform="translate(0.7 -64.28)"><polygon class="cls-1" points="60.15 1094.08 68.56 1094.08 43.83 1118.08 18.4 1094.08 27.31 1094.08 27.31 202.03 19 202.03 43.73 178.03 69.16 202.03 60.15 202.03 60.15 1094.08"/></clipPath><linearGradient id="linear-gradient" y1="1190.55" x2="1" y2="1190.55" gradientTransform="matrix(0, -940.05, -940.05, 0, 1119221.04, 1053.79)" gradientUnits="userSpaceOnUse"><stop offset="0" stop-color="#fff"/><stop offset="0.81" stop-color="#231f20"/><stop offset="1" stop-color="#231f20"/></linearGradient><clipPath id="clip-path-2" transform="translate(0.7 -64.28)"><rect class="cls-1" width="841.89" height="1190.55"/></clipPath></defs><g class="cls-2"><rect class="cls-3" x="19.1" y="113.74" width="50.76" height="940.05"/></g><polygon class="cls-4" points="60.85 1029.79 69.26 1029.79 44.53 1053.79 19.1 1029.79 28.01 1029.79 28.01 137.74 19.7 137.74 44.43 113.74 69.86 137.74 60.85 137.74 60.85 1029.79"/><g class="cls-5"><path class="cls-6" d="M34.37,1079.18c0-3.57,2.21-5.94,5.28-5.94a5,5,0,0,1,4.81,3.4,5.44,5.44,0,0,1,5.31-3.85c3.33,0,5.81,2.66,5.81,6.48v6.4H34.37Zm9.31.37a3.76,3.76,0,1,0-7.49,0v3.87h7.49Zm10.09,0a4.21,4.21,0,1,0-8.4,0v3.9h8.4Z" transform="translate(0.7 -64.28)"/><path class="cls-6" d="M55.58,1058.12,49.65,1060v7.37l5.93,1.85v2.24l-21.21-6.76v-2.18l21.21-6.73Zm-7.66,2.34-10.43,3.21,10.43,3.21Z" transform="translate(0.7 -64.28)"/><path class="cls-6" d="M39.16,1053.28c-3.06,0-5.09-2.33-5.09-5.55a6.08,6.08,0,0,1,4.3-5.91l.7,1.85s-3.06,1-3.06,4c0,2,1.18,3.37,2.94,3.37,2.09,0,3.36-1.55,4.85-4.09,1.63-2.85,3.63-4.91,6.54-4.91,3.52,0,5.55,2.48,5.55,5.84,0,5.07-5,6.37-5,6.37l-.67-1.85s3.76-1.21,3.76-4.48a3.31,3.31,0,0,0-3.39-3.64c-2.22,0-3.58,1.48-5.13,4.18s-3.75,4.82-6.27,4.82" transform="translate(0.7 -64.28)"/><rect class="cls-6" x="35.07" y="971.15" width="21.21" height="2.3"/><path class="cls-6" d="M48.25,1018.1h.94c4.18,0,6.7,2.49,6.7,6.31s-2.46,6.33-6.64,6.33H40.77c-4.19,0-6.7-2.55-6.7-6.4s2.45-6.24,6.64-6.24h.72v2.15h-.6c-3,0-4.73,1.52-4.73,4.12s1.76,4.13,4.73,4.13h8.33c2.94,0,4.73-1.52,4.73-4.13s-1.79-4.12-4.73-4.12h-.91Z" transform="translate(0.7 -64.28)"/><path class="cls-6" d="M39.16,1013.8c-3.06,0-5.09-2.33-5.09-5.54a6.07,6.07,0,0,1,4.3-5.91l.7,1.85s-3.06,1-3.06,4c0,2,1.18,3.36,2.94,3.36,2.09,0,3.36-1.55,4.85-4.09,1.63-2.85,3.63-4.91,6.54-4.91,3.52,0,5.55,2.48,5.55,5.85,0,5.06-5,6.36-5,6.36l-.67-1.85s3.76-1.21,3.76-4.48a3.32,3.32,0,0,0-3.39-3.64c-2.22,0-3.58,1.49-5.13,4.18-1.63,2.85-3.75,4.82-6.27,4.82" transform="translate(0.7 -64.28)"/><path class="cls-7" d="M55.65,332.93l-5.94,1.85v7.36L55.65,344v2.24l-21.22-6.76v-2.18l21.22-6.73ZM48,335.26l-10.42,3.21L48,341.69Z" transform="translate(0.7 -64.28)"/><path class="cls-7" d="M41.59,315.11h6.82c4.63,0,7.24,2.52,7.24,6.82v5.91H34.44v-6c0-4.3,2.54-6.76,7.15-6.76m12.09,6.82c0-3-1.91-4.57-5.21-4.57H41.65c-3.34,0-5.24,1.6-5.24,4.57v3.67H53.68Z" transform="translate(0.7 -64.28)"/><polygon class="cls-7" points="35.14 245.98 52.87 240.56 35.14 235.13 35.14 232.8 56.35 239.53 56.35 241.71 35.14 248.41 35.14 245.98"/><path class="cls-7" d="M55.65,284.39l-5.94,1.85v7.36l5.94,1.85v2.25l-21.22-6.76v-2.19L55.65,282ZM48,286.72l-10.42,3.22L48,293.15Z" transform="translate(0.7 -64.28)"/><polygon class="cls-7" points="56.35 212.96 56.35 215.02 35.14 215.02 35.14 212.84 52.08 204.08 35.14 204.08 35.14 201.99 56.35 201.99 56.35 204.08 39.2 212.96 56.35 212.96"/><path class="cls-7" d="M48.31,249.09h.94c4.19,0,6.7,2.49,6.7,6.31s-2.45,6.33-6.64,6.33H40.83c-4.18,0-6.7-2.54-6.7-6.39s2.46-6.25,6.64-6.25h.73v2.16h-.61c-3,0-4.73,1.51-4.73,4.12s1.76,4.12,4.73,4.12h8.33c2.94,0,4.73-1.52,4.73-4.12s-1.79-4.12-4.73-4.12h-.91Z" transform="translate(0.7 -64.28)"/><polygon class="cls-7" points="35.14 180.27 35.14 169.66 37.11 169.66 37.11 178.03 44.38 178.03 44.38 170.87 46.23 170.87 46.23 178.03 54.38 178.03 54.38 169.51 56.35 169.51 56.35 180.27 35.14 180.27"/><path class="cls-7" d="M41.59,217.58h6.82c4.63,0,7.24,2.52,7.24,6.82v5.91H34.44v-6c0-4.3,2.54-6.76,7.15-6.76m12.09,6.82c0-3-1.91-4.57-5.21-4.57H41.65c-3.34,0-5.24,1.6-5.24,4.57v3.67H53.68Z" transform="translate(0.7 -64.28)"/><path class="cls-6" d="M363,1104.78a3,3,0,0,0,1.6.38,5.75,5.75,0,0,1,3.85,1.3,4.51,4.51,0,0,1,1.63,3.63,4.8,4.8,0,0,1-1.67,3.68,5.65,5.65,0,0,1-8.82-1.56l1.38-.8,1.36-.79a2.54,2.54,0,0,0,2.27,1.47,2.44,2.44,0,0,0,1.57-.56,1.76,1.76,0,0,0,.74-1.44,1.53,1.53,0,0,0-.72-1.39,2.84,2.84,0,0,0-1.59-.38,5.74,5.74,0,0,1-3.84-1.3,4.52,4.52,0,0,1-1.63-3.64,4.8,4.8,0,0,1,1.67-3.67,5.64,5.64,0,0,1,8.82,1.57l-2.75,1.58a2.54,2.54,0,0,0-2.27-1.46,2.42,2.42,0,0,0-1.56.55,1.77,1.77,0,0,0-.76,1.43,1.55,1.55,0,0,0,.72,1.4" transform="translate(0.7 -64.28)"/><polygon class="cls-6" points="380.83 1034.29 380.83 1037.44 377.62 1037.44 377.62 1050.62 374.45 1050.62 374.45 1037.44 371.24 1037.44 371.24 1034.29 380.83 1034.29"/><path class="cls-6" d="M386.71,1098.57l4.23,16.34h-3.26l-.64-2.49h-4.42l-.64,2.49h-3.25l4.22-16.34Zm-3.26,10.68h2.76l-1.38-5.32Z" transform="translate(0.7 -64.28)"/><path class="cls-6" d="M395.36,1108.32v6.59H392.2v-16.34h6a4.9,4.9,0,0,1,4.87,4.88,4.86,4.86,0,0,1-3.22,4.57l2.83,6.89h-3.42l-2.71-6.59Zm0-6.59v3.43h2.86a1.64,1.64,0,0,0,1.2-.5,1.66,1.66,0,0,0,.51-1.21,1.63,1.63,0,0,0-.51-1.21,1.61,1.61,0,0,0-1.2-.51Z" transform="translate(0.7 -64.28)"/><polygon class="cls-6" points="414.22 1034.29 414.22 1037.44 411 1037.44 411 1050.62 407.83 1050.62 407.83 1037.44 404.62 1037.44 404.62 1034.29 414.22 1034.29"/><polygon class="cls-6" points="490.23 1034.29 490.23 1050.62 487.07 1050.62 487.07 1044.03 482.17 1044.03 482.17 1050.62 479.01 1050.62 479.01 1034.29 482.17 1034.29 482.17 1040.87 487.07 1040.87 487.07 1034.29 490.23 1034.29"/><polygon class="cls-6" points="501.22 1034.29 501.22 1037.44 495.99 1037.44 495.99 1040.87 500 1040.87 500 1044.03 495.99 1044.03 495.99 1047.46 501.22 1047.46 501.22 1050.62 492.83 1050.62 492.83 1034.29 501.22 1034.29"/><path class="cls-6" d="M505.64,1108.32v6.59h-3.16v-16.34h6a4.87,4.87,0,0,1,4,7.68,4.78,4.78,0,0,1-2.33,1.77l2.83,6.89h-3.42l-2.71-6.59Zm0-6.59v3.43h2.87a1.63,1.63,0,0,0,1.19-.5,1.67,1.67,0,0,0,.52-1.21,1.64,1.64,0,0,0-.52-1.21,1.6,1.6,0,0,0-1.19-.51Z" transform="translate(0.7 -64.28)"/><polygon class="cls-6" points="524.28 1034.29 524.28 1037.44 519.04 1037.44 519.04 1040.87 523.06 1040.87 523.06 1044.03 519.04 1044.03 519.04 1047.46 524.28 1047.46 524.28 1050.62 515.88 1050.62 515.88 1034.29 524.28 1034.29"/><path class="cls-8" d="M469.27,1118.8l-6-26a1,1,0,0,0-1-.77h-36a1,1,0,0,0-1,.77l-6,26a1,1,0,0,0,.2.85,1,1,0,0,0,.78.38h48a1,1,0,0,0,1-1.23m-24-.77h-2v-3h2Zm0-5h-2v-4h2Zm0-6h-2v-4h2Zm0-6h-2v-4h2Zm0-6h-2v-1h2Z" transform="translate(0.7 -64.28)"/><path class="cls-6" d="M93.55,1137.87H92.41l-4.68-7.19h0c.07.84.1,1.62.1,2.32v4.87h-.92v-8.57H88l4.67,7.16h0c0-.1,0-.44,0-1s0-1,0-1.23v-4.92h.93Z" transform="translate(0.7 -64.28)"/><path class="cls-6" d="M99.71,1137.87l-.2-.91h0a2.66,2.66,0,0,1-1,.81,2.81,2.81,0,0,1-1.19.22,2.18,2.18,0,0,1-1.5-.49,1.82,1.82,0,0,1-.54-1.41c0-1.29,1-2,3.11-2l1.09,0v-.4a1.6,1.6,0,0,0-.33-1.11,1.32,1.32,0,0,0-1-.36,4.18,4.18,0,0,0-1.81.49l-.3-.75a4.78,4.78,0,0,1,1-.4,4.39,4.39,0,0,1,1.13-.15,2.42,2.42,0,0,1,1.7.51,2.14,2.14,0,0,1,.56,1.64v4.38Zm-2.2-.69a2,2,0,0,0,1.43-.49,1.89,1.89,0,0,0,.52-1.4v-.58l-1,0a3.6,3.6,0,0,0-1.67.36,1.11,1.11,0,0,0-.51,1,1,1,0,0,0,.32.8,1.33,1.33,0,0,0,.89.27" transform="translate(0.7 -64.28)"/><path class="cls-6" d="M110.62,1137.87v-4.18a1.73,1.73,0,0,0-.33-1.15,1.26,1.26,0,0,0-1-.38,1.64,1.64,0,0,0-1.34.52,2.47,2.47,0,0,0-.43,1.6v3.59h-1v-4.18a1.73,1.73,0,0,0-.33-1.15,1.24,1.24,0,0,0-1-.38,1.6,1.6,0,0,0-1.34.54,3,3,0,0,0-.42,1.8v3.37h-1v-6.42h.79l.16.88h.05a1.86,1.86,0,0,1,.78-.74,2.4,2.4,0,0,1,1.12-.26,1.91,1.91,0,0,1,2,1.09h0a2,2,0,0,1,.84-.8,2.61,2.61,0,0,1,1.24-.29,2.19,2.19,0,0,1,1.63.56,2.5,2.5,0,0,1,.54,1.79v4.19Z" transform="translate(0.7 -64.28)"/><path class="cls-6" d="M116.31,1138a3,3,0,0,1-2.25-.87,3.35,3.35,0,0,1-.82-2.41,3.74,3.74,0,0,1,.76-2.47,2.55,2.55,0,0,1,2.06-.91,2.42,2.42,0,0,1,1.91.79,3.09,3.09,0,0,1,.7,2.1v.61h-4.43a2.5,2.5,0,0,0,.58,1.72,2,2,0,0,0,1.52.59,5.15,5.15,0,0,0,2-.44v.87a4.77,4.77,0,0,1-1,.32,5.85,5.85,0,0,1-1.11.1m-.27-5.85a1.58,1.58,0,0,0-1.23.51,2.25,2.25,0,0,0-.54,1.39h3.36a2.17,2.17,0,0,0-.41-1.41,1.49,1.49,0,0,0-1.18-.49" transform="translate(0.7 -64.28)"/><path class="cls-6" d="M120.19,1132.07c0-.52.23-.79.69-.79s.72.27.72.79a.87.87,0,0,1-.19.59.69.69,0,0,1-.53.21.72.72,0,0,1-.5-.19.8.8,0,0,1-.19-.61m0,5.18a.9.9,0,0,1,.18-.6.65.65,0,0,1,.51-.2.72.72,0,0,1,.53.2,1,1,0,0,1,0,1.18.69.69,0,0,1-.53.21.68.68,0,0,1-.5-.19.79.79,0,0,1-.19-.6" transform="translate(0.7 -64.28)"/><line class="cls-9" x1="126.94" y1="1073.24" x2="337.85" y2="1073.24"/><rect class="cls-8" x="0.7" y="1092.07" width="841.89" height="33.19"/><rect class="cls-10" x="0.7" y="1092.07" width="841.89" height="33.19"/></g><text class="cls-11" transform="translate(129.11 1114.12)"> </text><text class="cls-11" transform="translate(216.29 1114.12)"> </text><text class="cls-11" transform="translate(303.47 1114.12)"><tspan xml:space="preserve">MADE BY STEPH PIPER  -  MAKERQUEEN AU</tspan></text><g class="cls-5"><path class="cls-7" d="M725.39,1152.44a26,26,0,1,1-25.95-26,26,26,0,0,1,25.95,26" transform="translate(0.7 -64.28)"/><circle class="cls-12" cx="699.44" cy="1152.44" r="25.96" transform="translate(-43.01 -36.59) rotate(-2.2)"/><path class="cls-6" d="M691.39,1166.54a.35.35,0,0,1-.26-.42,4.54,4.54,0,0,0-.47-2.95.34.34,0,0,1,.08-.37l5-5a.35.35,0,0,1,.49.49l-4.84,4.84a4.83,4.83,0,0,1,.42,3.15.34.34,0,0,1-.42.26" transform="translate(0.7 -64.28)"/><path class="cls-6" d="M704.89,1149.14a.34.34,0,0,0-.49,0l-1,1a.35.35,0,1,0,.49.49l1-1a.34.34,0,0,0,0-.49" transform="translate(0.7 -64.28)"/><path class="cls-6" d="M713.8,1164.2a3,3,0,0,0-.52-.68.35.35,0,0,1,0-.5.36.36,0,0,1,.49,0,3.59,3.59,0,0,1,.64.84.35.35,0,0,1-.61.34m-1.51-1.67-6.92-6.92a3,3,0,0,0-1.35-.77,7.23,7.23,0,0,1-2.56-1.23.35.35,0,1,1,.42-.56,6.42,6.42,0,0,0,2.31,1.11,3.58,3.58,0,0,1,1.67.95l6.93,6.92a.37.37,0,0,1,0,.5.35.35,0,0,1-.5,0" transform="translate(0.7 -64.28)"/><path class="cls-6" d="M717.39,1146.63a.37.37,0,0,0-.71,0c-.26,1.13-.62,1.25-1.17,1.43a.36.36,0,0,0,0,.69,1.52,1.52,0,0,1,1.17,1.42.36.36,0,0,0,.71,0c.26-1.12.65-1.25,1.18-1.42a.36.36,0,0,0,0-.69c-.51-.17-.91-.28-1.18-1.43M717,1149a1.84,1.84,0,0,0-.56-.6,1.75,1.75,0,0,0,.56-.63,1.92,1.92,0,0,0,.54.63,1.88,1.88,0,0,0-.54.6" transform="translate(0.7 -64.28)"/><path class="cls-6" d="M685.47,1158.81a.37.37,0,0,0,.71,0c.26-1.13.65-1.25,1.18-1.43a.36.36,0,0,0,0-.69c-.51-.17-.91-.28-1.18-1.43a.37.37,0,0,0-.71,0c-.26,1.13-.62,1.25-1.17,1.43a.36.36,0,0,0,0,.69c.91.3,1,.75,1.17,1.43m.36-2.4a.63.63,0,0,1,0,1.24,1.77,1.77,0,0,0-.56-.61,1.75,1.75,0,0,0,.56-.63" transform="translate(0.7 -64.28)"/><path class="cls-6" d="M700.86,1164.1c-.51-.17-.91-.28-1.17-1.43a.37.37,0,0,0-.71,0c-.26,1.13-.63,1.25-1.18,1.43a.36.36,0,0,0,0,.69c.92.3,1,.75,1.18,1.42a.36.36,0,0,0,.71,0c.26-1.12.64-1.25,1.17-1.42a.36.36,0,0,0,0-.69m-1.52,1a2,2,0,0,0-.57-.6,1.75,1.75,0,0,0,.56-.63,1.93,1.93,0,0,0,.55.63,1.77,1.77,0,0,0-.54.6" transform="translate(0.7 -64.28)"/><path class="cls-6" d="M702.51,1135.93c.92.3,1,.75,1.18,1.42a.36.36,0,0,0,.71,0c.26-1.12.64-1.25,1.17-1.42a.37.37,0,0,0,0-.7c-.51-.16-.91-.27-1.17-1.42a.37.37,0,0,0-.71,0c-.26,1.12-.62,1.24-1.18,1.43a.36.36,0,0,0,0,.69m1.53-1a1.84,1.84,0,0,0,.55.63,2,2,0,0,0-.54.61,1.89,1.89,0,0,0-.57-.6,1.78,1.78,0,0,0,.56-.64" transform="translate(0.7 -64.28)"/><path class="cls-6" d="M702.81,1159.67a.36.36,0,0,0,0,.49l6,6a.36.36,0,0,0,.49,0,.35.35,0,0,0,0-.5l-6-6a.35.35,0,0,0-.5,0" transform="translate(0.7 -64.28)"/><path class="cls-6" d="M711.76,1163.66a.35.35,0,0,0,0-.5l-6-6a.35.35,0,0,0-.5,0,.36.36,0,0,0,0,.49l6,6a.36.36,0,0,0,.49,0" transform="translate(0.7 -64.28)"/><path class="cls-6" d="M706.65,1154.08a.35.35,0,1,0,.49,0,.34.34,0,0,0-.49,0" transform="translate(0.7 -64.28)"/><path class="cls-6" d="M709,1155.9a15.68,15.68,0,0,0,3.53-1.49c1.73-1,2.65-2.26,2.65-3.55s-.83-2.39-2.38-3.39l.3-.11a5.63,5.63,0,0,0,1.88-1.25l.07-.07a.35.35,0,0,0,0-.49.36.36,0,0,0-.5,0l-.06.06a4.85,4.85,0,0,1-2.54,1.36,15.14,15.14,0,0,0-1.39-.63l-.29-.11a4,4,0,0,0,1.68,0,.35.35,0,0,0,.26-.42.35.35,0,0,0-.42-.27,3.18,3.18,0,0,1-1.53,0,1.51,1.51,0,0,0,0-.7,1.59,1.59,0,0,0-1.55-1.21,1.74,1.74,0,0,0-.39.05,1.42,1.42,0,0,0-.42.22,3.06,3.06,0,0,1-.31,1l0,0,0,.07,0,.06,0,.06a.1.1,0,0,0,0,0l0,.06-.07.09h0l-.77-.16,0,0,.08-.08,0,0,0,0,0-.06,0,0,0-.06v0l.05-.06v0l0-.06v0a.21.21,0,0,0,0-.06l0,0s0,0,0,0l0-.06v0a.42.42,0,0,1,0-.1h0a2.26,2.26,0,0,0-.54-2.33,2,2,0,0,0-.52-.39,5,5,0,0,1,5.76-4.4.13.13,0,0,1,.06.23l-3.16,3.16a.36.36,0,0,0,0,.49l3.31,3.31a.35.35,0,0,0,.5,0l3.16-3.16a.13.13,0,0,1,.22.07,4.84,4.84,0,0,1-.08,2,.36.36,0,0,0,.26.43.34.34,0,0,0,.42-.26,5.48,5.48,0,0,0,.09-2.28.83.83,0,0,0-1.41-.45l-2.91,2.91-2.82-2.82,2.92-2.91a.83.83,0,0,0-.45-1.41,5.65,5.65,0,0,0-6.54,4.85,2.53,2.53,0,0,0-.89,0,4,4,0,0,1,.18.7h0c0,.05,0,.09,0,.13v0s0,.08,0,.12v0s0,.1,0,.15,0,.12,0,.19v.09s0,0,0,.08,0,.09,0,.14h0a4.8,4.8,0,0,1-.55,1.78l-.74-.07a4.21,4.21,0,0,0,.63-2h0v-.32s0,0,0-.06a.17.17,0,0,0,0-.07.22.22,0,0,0,0-.08.13.13,0,0,0,0-.06.19.19,0,0,0,0-.08V1142a.19.19,0,0,1,0-.08s0,0,0-.06,0-.06,0-.09l0,0,0-.1v0a14.32,14.32,0,0,0-2.42-3.63c-.54-.66-1.1-1.34-1.56-2-.48.69-1,1.39-1.61,2.07a12,12,0,0,0-2.5,3.86v0l0,.11s0,0,0,0,0,.06,0,.09a.17.17,0,0,1,0,.07.2.2,0,0,1,0,.07v.45h0a4.21,4.21,0,0,0,.63,2l-.74.07a4.8,4.8,0,0,1-.55-1.78h0a.66.66,0,0,1,0-.14s0-.05,0-.08v-.09c0-.07,0-.13,0-.19s0-.1,0-.15v0s0-.07,0-.11v0s0-.06,0-.1v0a.5.5,0,0,0,0-.12v0a3.23,3.23,0,0,1,.14-.51,2.47,2.47,0,0,0-.6-.08,2.25,2.25,0,0,0-2.25,2.25v.11h0a2.33,2.33,0,0,0,.45,1.23h0l.06.07,0,0,.05,0,.07.08.07.06-.78.17a2.93,2.93,0,0,1-.57-1.21.24.24,0,0,0,.08-.06.35.35,0,0,0,0-.49l-2.08-2.08-.45-1.39a.47.47,0,0,0-.08-.14l-3.38-3.38a.37.37,0,0,0-.5,0l-3,3a.35.35,0,0,0,0,.5l3.37,3.38a.46.46,0,0,0,.15.09l1.35.41,2.23,2.23-.33.13c-3,1.18-4.63,2.78-4.63,4.51,0,1.29.92,2.52,2.65,3.55a18.82,18.82,0,0,0,5.91,2.08l-3.44,3.43a5.68,5.68,0,0,0-7.4,6.31.83.83,0,0,0,1.41.45l2.91-2.92,2.82,2.82-2.91,2.91a.83.83,0,0,0,.44,1.41,5.66,5.66,0,0,0,6.3-7.39l5-5a3.06,3.06,0,0,1,.13.43h0a5.22,5.22,0,0,0,1.37,2.43l7.94,7.93a5.26,5.26,0,1,0,7.43-7.44Zm-4.16-10.27c.91.13,1.78.3,2.6.49l-2,2a.35.35,0,0,0,.49.49l2.32-2.32a20.94,20.94,0,0,1,2.07.68l.1,0a4.64,4.64,0,0,1-1.21-.29.36.36,0,0,0-.37.08l-5.31,5.31a5,5,0,0,1-1.1-.82l-.26-.26a1.85,1.85,0,0,0-.13-2.6Zm-5.92-5.82a10.1,10.1,0,0,0,.61-.81.34.34,0,0,1,.29-.16.36.36,0,0,1,.29.16,6.47,6.47,0,0,0,.59.79,3.35,3.35,0,0,1,1,1.86,1.88,1.88,0,1,1-3.76,0,3.24,3.24,0,0,1,1-1.84m.89,5.48a37.41,37.41,0,0,1,4.16.23l-2.57,2.57a1.87,1.87,0,0,0-1.92.43l-1.41,1.42-4.16-4.17a35.69,35.69,0,0,1,5.9-.48m-6.66.62a.3.3,0,0,0,.1.19l4.33,4.33-1.49,1.49-5.4-5.4c.77-.23,1.6-.44,2.46-.61m-3.88-1.09a2,2,0,0,0,0,.24l-1.63-1.62a.24.24,0,0,0-.14-.09l-1.35-.42-3.07-3.07,2.48-2.48,3.07,3.07.45,1.39a.34.34,0,0,0,.09.14l1.63,1.63a1.61,1.61,0,0,0-1.49,1.21m-1.84,9c-1-.63-2.3-1.65-2.3-3s1.52-2.81,4.19-3.86c.2-.08.41-.16.63-.23l5.64,5.64-1.41,1.41a1.86,1.86,0,0,0-.5,1.67,1.93,1.93,0,0,0-.19.38,19,19,0,0,1-6.06-2.06m9.27,5.14-4.22,4.22a.38.38,0,0,0-.08.37,5,5,0,0,1-5.45,6.67.13.13,0,0,1-.07-.22l3.16-3.16a.35.35,0,0,0,0-.5L686.7,1163a.36.36,0,0,0-.49,0l-3.16,3.16a.13.13,0,0,1-.23-.07,5,5,0,0,1,6.68-5.45.38.38,0,0,0,.37-.08l3.44-3.44.78-.78a1.84,1.84,0,0,0,2.6.13,5.7,5.7,0,0,1,1.08,1.37Zm13.74,11.14a4.56,4.56,0,0,1-2.4-1.26l-7.93-7.93a4.66,4.66,0,0,1-1.2-2.1h0a5.19,5.19,0,0,0-.82-1.8,7.78,7.78,0,0,0-.88-1l.51-.51,3.93-3.93.26.25a5.7,5.7,0,0,0,1.11.86c1.12.66,1.64.49,2.64,1.08a.35.35,0,1,0,.35-.6,7.08,7.08,0,0,0-1.81-.7l5-5a5.61,5.61,0,0,0,2.67.23c1.71.93,2.66,2,2.66,3.15,0,1.3-1.25,2.32-2.3,3a16,16,0,0,1-3.76,1.53l-.27-.27a.36.36,0,0,0-.49,0,.33.33,0,0,0,0,.47v0h0l.55.56,6.27,6.27a4.49,4.49,0,0,1,1.26,2.39,8,8,0,0,0-5.31,5.31" transform="translate(0.7 -64.28)"/><path class="cls-6" d="M715.77,1144.37a.37.37,0,0,0-.48.14.35.35,0,1,0,.48-.14" transform="translate(0.7 -64.28)"/><path class="cls-6" d="M701.66,1141.65a1.88,1.88,0,1,1-3.76,0,3.24,3.24,0,0,1,1-1.84,10.1,10.1,0,0,0,.61-.81.34.34,0,0,1,.29-.16.36.36,0,0,1,.29.16,6.47,6.47,0,0,0,.59.79,3.35,3.35,0,0,1,1,1.86" transform="translate(0.7 -64.28)"/><path class="cls-7" d="M700.67,1139.79a6.47,6.47,0,0,1-.59-.79.36.36,0,0,0-.29-.16.34.34,0,0,0-.29.16,8.34,8.34,0,0,1-.62.81,3.28,3.28,0,0,0-1,1.84,1.88,1.88,0,1,0,3.76,0,3.35,3.35,0,0,0-1-1.86m-.89,3.06a1.2,1.2,0,0,1-1.2-1.2c0-.4.42-.91.83-1.41.13-.15.26-.3.38-.46l.35.45c.41.5.84,1,.84,1.42a1.2,1.2,0,0,1-1.2,1.2" transform="translate(0.7 -64.28)"/><path class="cls-6" d="M701,1141.65a1.2,1.2,0,0,1-2.4,0c0-.4.42-.91.83-1.41.13-.15.26-.3.38-.46l.35.45c.41.5.84,1,.84,1.42" transform="translate(0.7 -64.28)"/></g><text class="cls-13" transform="translate(734.92 1111.97)">Icons by Icons8.com</text><g class="cls-5"><polygon class="cls-14" points="748.74 156.3 789.05 204.46 748.74 252.61 668.1 252.61 627.78 204.46 668.1 156.3 748.74 156.3"/><polygon class="cls-14" points="748.74 265.2 789.05 313.36 748.74 361.51 668.1 361.51 627.78 313.36 668.1 265.2 748.74 265.2"/><polygon class="cls-14" points="748.74 374.1 789.05 422.26 748.74 470.42 668.1 470.42 627.78 422.26 668.1 374.1 748.74 374.1"/><polygon class="cls-14" points="748.74 483 789.05 531.16 748.74 579.32 668.1 579.32 627.78 531.16 668.1 483 748.74 483"/><polygon class="cls-14" points="748.74 591.9 789.05 640.06 748.74 688.22 668.1 688.22 627.78 640.06 668.1 591.9 748.74 591.9"/><polygon class="cls-14" points="748.74 700.8 789.05 748.96 748.74 797.12 668.1 797.12 627.78 748.96 668.1 700.8 748.74 700.8"/><polygon class="cls-14" points="748.74 809.7 789.05 857.86 748.74 906.02 668.1 906.02 627.78 857.86 668.1 809.7 748.74 809.7"/><polygon class="cls-14" points="748.74 918.6 789.05 966.76 748.74 1014.92 668.1 1014.92 627.78 966.76 668.1 918.6 748.74 918.6"/><polygon class="cls-14" points="614.71 101.06 655.02 149.22 614.71 197.37 534.07 197.37 493.75 149.22 534.07 101.06 614.71 101.06"/><polygon class="cls-14" points="614.71 209.96 655.02 258.12 614.71 306.27 534.07 306.27 493.75 258.12 534.07 209.96 614.71 209.96"/><polygon class="cls-14" points="614.71 318.86 655.02 367.02 614.71 415.18 534.07 415.18 493.75 367.02 534.07 318.86 614.71 318.86"/><polygon class="cls-14" points="614.71 427.76 655.02 475.92 614.71 524.08 534.07 524.08 493.75 475.92 534.07 427.76 614.71 427.76"/><polygon class="cls-14" points="614.71 536.66 655.02 584.82 614.71 632.98 534.07 632.98 493.75 584.82 534.07 536.66 614.71 536.66"/><polygon class="cls-14" points="614.71 645.56 655.02 693.72 614.71 741.88 534.07 741.88 493.75 693.72 534.07 645.56 614.71 645.56"/><polygon class="cls-14" points="614.71 754.46 655.02 802.62 614.71 850.78 534.07 850.78 493.75 802.62 534.07 754.46 614.71 754.46"/><polygon class="cls-14" points="614.71 863.36 655.02 911.52 614.71 959.68 534.07 959.68 493.75 911.52 534.07 863.36 614.71 863.36"/><polygon class="cls-14" points="482.8 155.98 523.12 204.13 482.8 252.29 402.16 252.29 361.84 204.13 402.16 155.98 482.8 155.98"/><polygon class="cls-14" points="482.8 264.88 523.12 313.03 482.8 361.19 402.16 361.19 361.84 313.03 402.16 264.88 482.8 264.88"/><polygon class="cls-14" points="482.8 373.78 523.12 421.94 482.8 470.09 402.16 470.09 361.84 421.94 402.16 373.78 482.8 373.78"/><polygon class="cls-14" points="482.8 482.68 523.12 530.84 482.8 578.99 402.16 578.99 361.84 530.84 402.16 482.68 482.8 482.68"/><polygon class="cls-14" points="482.8 591.58 523.12 639.74 482.8 687.89 402.16 687.89 361.84 639.74 402.16 591.58 482.8 591.58"/><polygon class="cls-14" points="482.8 700.48 523.12 748.64 482.8 796.79 402.16 796.79 361.84 748.64 402.16 700.48 482.8 700.48"/><polygon class="cls-14" points="482.8 809.38 523.12 857.54 482.8 905.7 402.16 905.7 361.84 857.54 402.16 809.38 482.8 809.38"/><polygon class="cls-14" points="482.8 918.28 523.12 966.44 482.8 1014.6 402.16 1014.6 361.84 966.44 402.16 918.28 482.8 918.28"/><polygon class="cls-14" points="348.77 100.74 389.09 148.9 348.77 197.05 268.13 197.05 227.81 148.9 268.13 100.74 348.77 100.74"/><polygon class="cls-14" points="348.77 209.64 389.09 257.8 348.77 305.95 268.13 305.95 227.81 257.8 268.13 209.64 348.77 209.64"/><polygon class="cls-14" points="348.77 318.54 389.09 366.7 348.77 414.85 268.13 414.85 227.81 366.7 268.13 318.54 348.77 318.54"/><polygon class="cls-14" points="348.77 427.44 389.09 475.6 348.77 523.76 268.13 523.76 227.81 475.6 268.13 427.44 348.77 427.44"/><polygon class="cls-14" points="348.77 536.34 389.09 584.5 348.77 632.66 268.13 632.66 227.81 584.5 268.13 536.34 348.77 536.34"/><polygon class="cls-14" points="348.77 645.24 389.09 693.4 348.77 741.56 268.13 741.56 227.81 693.4 268.13 645.24 348.77 645.24"/><polygon class="cls-14" points="348.77 754.14 389.09 802.3 348.77 850.46 268.13 850.46 227.81 802.3 268.13 754.14 348.77 754.14"/><polygon class="cls-14" points="348.77 863.04 389.09 911.2 348.77 959.36 268.13 959.36 227.81 911.2 268.13 863.04 348.77 863.04"/><polygon class="cls-14" points="216.86 155.19 257.18 203.34 216.86 251.5 136.22 251.5 95.91 203.34 136.22 155.19 216.86 155.19"/><polygon class="cls-14" points="216.86 264.09 257.18 312.24 216.86 360.4 136.22 360.4 95.91 312.24 136.22 264.09 216.86 264.09"/><polygon class="cls-14" points="216.86 372.99 257.18 421.14 216.86 469.3 136.22 469.3 95.91 421.14 136.22 372.99 216.86 372.99"/><polygon class="cls-14" points="216.86 481.89 257.18 530.05 216.86 578.2 136.22 578.2 95.91 530.05 136.22 481.89 216.86 481.89"/><polygon class="cls-14" points="216.86 590.79 257.18 638.95 216.86 687.1 136.22 687.1 95.91 638.95 136.22 590.79 216.86 590.79"/><polygon class="cls-14" points="216.86 699.69 257.18 747.85 216.86 796.01 136.22 796.01 95.91 747.85 136.22 699.69 216.86 699.69"/><polygon class="cls-14" points="216.86 808.59 257.18 856.75 216.86 904.91 136.22 904.91 95.91 856.75 136.22 808.59 216.86 808.59"/><polygon class="cls-14" points="216.86 917.49 257.18 965.65 216.86 1013.81 136.22 1013.81 95.91 965.65 136.22 917.49 216.86 917.49"/></g><text class="cls-15" transform="translate(536.56 112.51)">(s<tspan class="cls-16" x="7.56" y="0">e</tspan><tspan class="cls-17" x="12.53" y="0">t your own goal)</tspan></text><text class="cls-15" transform="translate(270.41 112.51)">(s<tspan class="cls-18" x="7.56" y="0">e</tspan><tspan class="cls-19" x="12.53" y="0">t your own goal)</tspan></text><text class="cls-20" transform="translate(730.23 1082.94)">CC BY-NC-SA 4.0</text><text class="cls-21" transform="translate(8.91 1111.51)">githu<tspan class="cls-22" x="21.34" y="0">b.</tspan><tspan class="cls-23" x="27.98" y="0">com</tspan><tspan class="cls-24" x="46.09" y="0">/</tspan><tspan x="48.99" y="0">sjpiper14</tspan><tspan class="cls-18" x="85.23" y="0">5</tspan><tspan x="90.12" y="0">/Ma</tspan><tspan class="cls-25" x="106.21" y="0">k</tspan><tspan class="cls-23" x="110.64" y="0">erSkill</tspan><tspan class="cls-26" x="135.31" y="0">T</tspan><tspan class="cls-27" x="139.37" y="0">r</tspan><tspan x="142.53" y="0">ee</tspan></text><g class="cls-5"><path class="cls-7" d="M841.51,1075.56v45.57l-.78,0H766.06c-6.06,0-11-4.39-11-9.81v-26c0-5.42,4.92-9.81,11-9.81h74.67l.78,0" transform="translate(0.7 -64.28)"/><path class="cls-28" d="M841.51,1075.56v45.57l-.78,0H766.06c-6.06,0-11-4.39-11-9.81v-26c0-5.42,4.92-9.81,11-9.81h74.67Z" transform="translate(0.7 -64.28)"/><path class="cls-6" d="M841.51,1105.35v15.78l-.78,0H766.06c-6.06,0-11-4.39-11-9.81v-6Z" transform="translate(0.7 -64.28)"/></g><text class="cls-29" transform="translate(779.5 1052.29)"><tspan class="cls-30">T</tspan><tspan class="cls-31" x="4.41" y="0">otal </tspan><tspan class="cls-32" x="23.1" y="0">S</tspan><tspan class="cls-33" x="28.25" y="0">c</tspan><tspan x="32.81" y="0">o</tspan><tspan class="cls-34" x="38.48" y="0">r</tspan><tspan class="cls-35" x="41.76" y="0">e</tspan></text><text class="cls-36" transform="translate(779.62 1007.8)">1 tile = 1 poi<tspan class="cls-37" x="40.89" y="0">n</tspan><tspan x="45.27" y="0">t</tspan></text><text class="cls-38" transform="translate(61.29 10.2)">Title: </text><g class="cls-5"><line class="cls-9" x1="94.18" y1="8.42" x2="799.07" y2="8.42"/><rect class="cls-6" x="299.04" y="21.05" width="245.21" height="28.04"/><rect class="cls-39" x="299.04" y="21.05" width="245.21" height="28.04"/></g><text class="cls-40" transform="translate(185.32 63.29)"><tspan class="cls-41">C</tspan><tspan class="cls-42" x="5.46" y="0">olor in the b</tspan><tspan class="cls-41" x="54.18" y="0">o</tspan><tspan class="cls-43" x="59.17" y="0">x</tspan><tspan x="63.47" y="0">es </tspan><tspan class="cls-44" x="74.7" y="0">o</tspan><tspan x="79.74" y="0">f an</tspan><tspan class="cls-45" x="95.56" y="0">y</tspan><tspan x="100.04" y="0">thing you</tspan><tspan class="cls-46" x="138.11" y="0">’</tspan><tspan x="140.35" y="0">ve al</tspan><tspan class="cls-47" x="159.22" y="0">r</tspan><tspan x="162.38" y="0">eady compl</tspan><tspan class="cls-48" x="209.63" y="0">e</tspan><tspan class="cls-49" x="214.59" y="0">t</tspan><tspan class="cls-42" x="217.99" y="0">ed, visuali</tspan><tspan class="cls-50" x="257.32" y="0">z</tspan><tspan class="cls-51" x="261.26" y="0">e your skills and ide</tspan><tspan class="cls-52" x="340.01" y="0">n</tspan><tspan x="345.08" y="0">ti</tspan><tspan class="cls-53" x="350.9" y="0">f</tspan><tspan class="cls-54" x="354.48" y="0" xml:space="preserve">y your skill gaps.  G</tspan><tspan class="cls-55" x="429.87" y="0">e</tspan><tspan x="434.82" y="0">t inspi</tspan><tspan class="cls-56" x="459.36" y="0">r</tspan><tspan class="cls-51" x="462.5" y="0">ed</tspan></text><text class="cls-40" transform="translate(227.92 75.24)"><tspan class="cls-47">t</tspan><tspan x="3.4" y="0">o t</tspan><tspan class="cls-57" x="14.29" y="0">r</tspan><tspan x="17.72" y="0">y new things and </tspan><tspan class="cls-48" x="88.11" y="0">t</tspan><tspan class="cls-58" x="91.61" y="0">ailor the skill t</tspan><tspan class="cls-59" x="148.65" y="0">r</tspan><tspan x="151.8" y="0">ee </tspan><tspan class="cls-56" x="164.13" y="0">t</tspan><tspan x="167.51" y="0">o suit your own journey by s</tspan><tspan class="cls-49" x="279.29" y="0">w</tspan><tspan class="cls-54" x="285.52" y="0">apping in your own goals.</tspan></text><text class="cls-60" transform="translate(304.69 41.87)">Skill <tspan class="cls-61" x="38.56" y="0">T</tspan><tspan class="cls-62" x="47.03" y="0">r</tspan><tspan x="53.64" y="0">ee: </tspan><tspan class="cls-63" x="83.27" y="0">C</tspan><tspan x="94.7" y="0">olor in the </tspan><tspan class="cls-64" x="185.94" y="0">Bo</tspan><tspan class="cls-65" x="207.42" y="0">x</tspan><tspan x="216.46" y="0">es </tspan></text></svg>