<svg id="Layer_1" data-name="Layer 1" xmlns="http://www.w3.org/2000/svg" xmlns:xlink="http://www.w3.org/1999/xlink" viewBox="0 0 843.41 1123.23"><defs><style>.cls-1,.cls-10,.cls-12,.cls-13,.cls-24,.cls-32,.cls-4,.cls-9{fill:none;}.cls-2{clip-path:url(#clip-path);}.cls-3{fill:url(#linear-gradient);}.cls-12,.cls-13,.cls-24,.cls-32,.cls-4,.cls-9{stroke:#231f20;}.cls-10,.cls-12,.cls-13,.cls-24,.cls-32,.cls-4,.cls-9{stroke-miterlimit:10;}.cls-4{stroke-width:0.5px;}.cls-5{clip-path:url(#clip-path-2);}.cls-14,.cls-15,.cls-29,.cls-33,.cls-6{fill:#231f20;}.cls-11,.cls-16,.cls-25,.cls-53,.cls-7{fill:#fff;}.cls-8{fill:#010101;}.cls-10{stroke:#010101;stroke-width:1.4px;}.cls-11{font-size:15px;}.cls-11,.cls-14,.cls-15,.cls-16,.cls-29,.cls-33,.cls-53{font-family:UniformCondensedRegular-Regular, Uniform Condensed Regular;}.cls-12{stroke-width:0.43px;}.cls-13{stroke-width:1.17px;}.cls-14,.cls-25{font-size:12px;}.cls-15{font-size:15.91px;}.cls-16,.cls-29{font-size:10px;}.cls-17{letter-spacing:-0.02em;}.cls-18{letter-spacing:0em;}.cls-19{letter-spacing:-0.12em;}.cls-20{letter-spacing:-0.01em;}.cls-21{letter-spacing:-0.01em;}.cls-22{letter-spacing:-0.06em;}.cls-23{letter-spacing:-0.02em;}.cls-24{stroke-width:1.06px;}.cls-25{font-family:MyriadPro-Regular, Myriad Pro;}.cls-26{letter-spacing:-0.07em;}.cls-27{letter-spacing:0em;}.cls-28{letter-spacing:0em;}.cls-30{letter-spacing:0em;}.cls-31{letter-spacing:0em;}.cls-32{stroke-width:0.98px;}.cls-33{font-size:9.96px;}.cls-34{letter-spacing:-0.01em;}.cls-35{letter-spacing:0em;}.cls-36{letter-spacing:-0.01em;}.cls-37{letter-spacing:0em;}.cls-38{letter-spacing:0.01em;}.cls-39{letter-spacing:0.05em;}.cls-40{letter-spacing:-0.02em;}.cls-41{letter-spacing:-0.01em;}.cls-42{letter-spacing:-0.02em;}.cls-43{letter-spacing:-0.02em;}.cls-44{letter-spacing:0em;}.cls-45{letter-spacing:-0.01em;}.cls-46{letter-spacing:0.01em;}.cls-47{letter-spacing:0em;}.cls-48{letter-spacing:-0.01em;}.cls-49{letter-spacing:-0.02em;}.cls-50{letter-spacing:0.01em;}.cls-51{letter-spacing:0em;}.cls-52{letter-spacing:-0.02em;}.cls-53{font-size:20.86px;}.cls-54{letter-spacing:-0.06em;}.cls-55{letter-spacing:-0.02em;}.cls-56{letter-spacing:-0.01em;}.cls-57{letter-spacing:-0.01em;}.cls-58{letter-spacing:-0.01em;}</style><clipPath id="clip-path" transform="translate(0.7 -67.02)"><polygon class="cls-1" points="60.15 1094.08 68.56 1094.08 43.83 1118.08 18.4 1094.08 27.31 1094.08 27.31 202.03 19 202.03 43.73 178.03 69.16 202.03 60.15 202.03 60.15 1094.08"/></clipPath><linearGradient id="linear-gradient" y1="1190.55" x2="1" y2="1190.55" gradientTransform="matrix(0, -940.05, -940.05, 0, 1119221.04, 1051.06)" gradientUnits="userSpaceOnUse"><stop offset="0" stop-color="#fff"/><stop offset="0.81" stop-color="#231f20"/><stop offset="1" stop-color="#231f20"/></linearGradient><clipPath id="clip-path-2" transform="translate(0.7 -67.02)"><rect class="cls-1" width="841.89" height="1190.55"/></clipPath></defs><g class="cls-2"><rect class="cls-3" x="19.1" y="111.01" width="50.76" height="940.05"/></g><polygon class="cls-4" points="60.85 1027.06 69.26 1027.06 44.53 1051.06 19.1 1027.06 28.01 1027.06 28.01 135.01 19.7 135.01 44.43 111.01 69.86 135.01 60.85 135.01 60.85 1027.06"/><g class="cls-5"><path class="cls-6" d="M34.37,1079.18c0-3.57,2.21-5.94,5.28-5.94a5,5,0,0,1,4.81,3.4,5.44,5.44,0,0,1,5.31-3.85c3.33,0,5.81,2.66,5.81,6.48v6.4H34.37Zm9.31.37a3.76,3.76,0,1,0-7.49,0v3.87h7.49Zm10.09,0a4.21,4.21,0,1,0-8.4,0v3.9h8.4Z" transform="translate(0.7 -67.02)"/><path class="cls-6" d="M55.58,1058.12,49.65,1060v7.37l5.93,1.85v2.24l-21.21-6.76v-2.18l21.21-6.73Zm-7.66,2.34-10.43,3.21,10.43,3.21Z" transform="translate(0.7 -67.02)"/><path class="cls-6" d="M39.16,1053.28c-3.06,0-5.09-2.33-5.09-5.55a6.08,6.08,0,0,1,4.3-5.91l.7,1.85s-3.06,1-3.06,4c0,2,1.18,3.37,2.94,3.37,2.09,0,3.36-1.55,4.85-4.09,1.63-2.85,3.63-4.91,6.54-4.91,3.52,0,5.55,2.48,5.55,5.84,0,5.07-5,6.37-5,6.37l-.67-1.85s3.76-1.21,3.76-4.48a3.31,3.31,0,0,0-3.39-3.64c-2.22,0-3.58,1.48-5.13,4.18s-3.75,4.82-6.27,4.82" transform="translate(0.7 -67.02)"/><rect class="cls-6" x="35.07" y="968.42" width="21.21" height="2.3"/><path class="cls-6" d="M48.25,1018.1h.94c4.18,0,6.7,2.49,6.7,6.31s-2.46,6.33-6.64,6.33H40.77c-4.19,0-6.7-2.55-6.7-6.4s2.45-6.24,6.64-6.24h.72v2.15h-.6c-3,0-4.73,1.52-4.73,4.12s1.76,4.13,4.73,4.13h8.33c2.94,0,4.73-1.52,4.73-4.13s-1.79-4.12-4.73-4.12h-.91Z" transform="translate(0.7 -67.02)"/><path class="cls-6" d="M39.16,1013.8c-3.06,0-5.09-2.33-5.09-5.54a6.07,6.07,0,0,1,4.3-5.91l.7,1.85s-3.06,1-3.06,4c0,2,1.18,3.36,2.94,3.36,2.09,0,3.36-1.55,4.85-4.09,1.63-2.85,3.63-4.91,6.54-4.91,3.52,0,5.55,2.48,5.55,5.85,0,5.06-5,6.36-5,6.36l-.67-1.85s3.76-1.21,3.76-4.48a3.32,3.32,0,0,0-3.39-3.64c-2.22,0-3.58,1.49-5.13,4.18-1.63,2.85-3.75,4.82-6.27,4.82" transform="translate(0.7 -67.02)"/><path class="cls-7" d="M55.65,332.93l-5.94,1.85v7.36L55.65,344v2.24l-21.22-6.76v-2.18l21.22-6.73ZM48,335.26l-10.42,3.21L48,341.69Z" transform="translate(0.7 -67.02)"/><path class="cls-7" d="M41.59,315.11h6.82c4.63,0,7.24,2.52,7.24,6.82v5.91H34.44v-6c0-4.3,2.54-6.76,7.15-6.76m12.09,6.82c0-3-1.91-4.57-5.21-4.57H41.65c-3.34,0-5.24,1.6-5.24,4.57v3.67H53.68Z" transform="translate(0.7 -67.02)"/><polygon class="cls-7" points="35.14 243.25 52.87 237.82 35.14 232.4 35.14 230.07 56.35 236.79 56.35 238.98 35.14 245.67 35.14 243.25"/><path class="cls-7" d="M55.65,284.39l-5.94,1.85v7.36l5.94,1.85v2.25l-21.22-6.76v-2.19L55.65,282ZM48,286.72l-10.42,3.22L48,293.15Z" transform="translate(0.7 -67.02)"/><polygon class="cls-7" points="56.35 210.22 56.35 212.28 35.14 212.28 35.14 210.1 52.08 201.34 35.14 201.34 35.14 199.25 56.35 199.25 56.35 201.34 39.2 210.22 56.35 210.22"/><path class="cls-7" d="M48.31,249.09h.94c4.19,0,6.7,2.49,6.7,6.31s-2.45,6.33-6.64,6.33H40.83c-4.18,0-6.7-2.54-6.7-6.39s2.46-6.25,6.64-6.25h.73v2.16h-.61c-3,0-4.73,1.51-4.73,4.12s1.76,4.12,4.73,4.12h8.33c2.94,0,4.73-1.52,4.73-4.12s-1.79-4.12-4.73-4.12h-.91Z" transform="translate(0.7 -67.02)"/><polygon class="cls-7" points="35.14 177.53 35.14 166.93 37.11 166.93 37.11 175.29 44.38 175.29 44.38 168.14 46.23 168.14 46.23 175.29 54.38 175.29 54.38 166.77 56.35 166.77 56.35 177.53 35.14 177.53"/><path class="cls-7" d="M41.59,217.58h6.82c4.63,0,7.24,2.52,7.24,6.82v5.91H34.44v-6c0-4.3,2.54-6.76,7.15-6.76m12.09,6.82c0-3-1.91-4.57-5.21-4.57H41.65c-3.34,0-5.24,1.6-5.24,4.57v3.67H53.68Z" transform="translate(0.7 -67.02)"/><path class="cls-6" d="M363,1104.78a3,3,0,0,0,1.6.38,5.75,5.75,0,0,1,3.85,1.3,4.51,4.51,0,0,1,1.63,3.63,4.8,4.8,0,0,1-1.67,3.68,5.65,5.65,0,0,1-8.82-1.56l1.38-.8,1.36-.79a2.54,2.54,0,0,0,2.27,1.47,2.44,2.44,0,0,0,1.57-.56,1.76,1.76,0,0,0,.74-1.44,1.53,1.53,0,0,0-.72-1.39,2.84,2.84,0,0,0-1.59-.38,5.74,5.74,0,0,1-3.84-1.3,4.52,4.52,0,0,1-1.63-3.64,4.8,4.8,0,0,1,1.67-3.67,5.64,5.64,0,0,1,8.82,1.57l-2.75,1.58a2.54,2.54,0,0,0-2.27-1.46,2.42,2.42,0,0,0-1.56.55,1.77,1.77,0,0,0-.76,1.43,1.55,1.55,0,0,0,.72,1.4" transform="translate(0.7 -67.02)"/><polygon class="cls-6" points="380.83 1031.55 380.83 1034.71 377.62 1034.71 377.62 1047.89 374.45 1047.89 374.45 1034.71 371.24 1034.71 371.24 1031.55 380.83 1031.55"/><path class="cls-6" d="M386.71,1098.57l4.23,16.34h-3.26l-.64-2.49h-4.42l-.64,2.49h-3.25l4.22-16.34Zm-3.26,10.68h2.76l-1.38-5.32Z" transform="translate(0.7 -67.02)"/><path class="cls-6" d="M395.36,1108.32v6.59H392.2v-16.34h6a4.9,4.9,0,0,1,4.87,4.88,4.86,4.86,0,0,1-3.22,4.57l2.83,6.89h-3.42l-2.71-6.59Zm0-6.59v3.43h2.86a1.64,1.64,0,0,0,1.2-.5,1.66,1.66,0,0,0,.51-1.21,1.63,1.63,0,0,0-.51-1.21,1.61,1.61,0,0,0-1.2-.51Z" transform="translate(0.7 -67.02)"/><polygon class="cls-6" points="414.22 1031.55 414.22 1034.71 411 1034.71 411 1047.89 407.83 1047.89 407.83 1034.71 404.62 1034.71 404.62 1031.55 414.22 1031.55"/><polygon class="cls-6" points="490.23 1031.55 490.23 1047.89 487.07 1047.89 487.07 1041.3 482.17 1041.3 482.17 1047.89 479.01 1047.89 479.01 1031.55 482.17 1031.55 482.17 1038.14 487.07 1038.14 487.07 1031.55 490.23 1031.55"/><polygon class="cls-6" points="501.22 1031.55 501.22 1034.71 495.99 1034.71 495.99 1038.14 500 1038.14 500 1041.3 495.99 1041.3 495.99 1044.73 501.22 1044.73 501.22 1047.89 492.83 1047.89 492.83 1031.55 501.22 1031.55"/><path class="cls-6" d="M505.64,1108.32v6.59h-3.16v-16.34h6a4.87,4.87,0,0,1,4,7.68,4.78,4.78,0,0,1-2.33,1.77l2.83,6.89h-3.42l-2.71-6.59Zm0-6.59v3.43h2.87a1.63,1.63,0,0,0,1.19-.5,1.67,1.67,0,0,0,.52-1.21,1.64,1.64,0,0,0-.52-1.21,1.6,1.6,0,0,0-1.19-.51Z" transform="translate(0.7 -67.02)"/><polygon class="cls-6" points="524.28 1031.55 524.28 1034.71 519.04 1034.71 519.04 1038.14 523.06 1038.14 523.06 1041.3 519.04 1041.3 519.04 1044.73 524.28 1044.73 524.28 1047.89 515.88 1047.89 515.88 1031.55 524.28 1031.55"/><path class="cls-8" d="M469.27,1118.8l-6-26a1,1,0,0,0-1-.77h-36a1,1,0,0,0-1,.77l-6,26a1,1,0,0,0,.2.85,1,1,0,0,0,.78.38h48a1,1,0,0,0,1-1.23m-24-.77h-2v-3h2Zm0-5h-2v-4h2Zm0-6h-2v-4h2Zm0-6h-2v-4h2Zm0-6h-2v-1h2Z" transform="translate(0.7 -67.02)"/><path class="cls-6" d="M93.55,1137.87H92.41l-4.68-7.19h0c.07.84.1,1.62.1,2.32v4.87h-.92v-8.57H88l4.67,7.16h0c0-.1,0-.44,0-1s0-1,0-1.23v-4.92h.93Z" transform="translate(0.7 -67.02)"/><path class="cls-6" d="M99.71,1137.87l-.2-.91h0a2.66,2.66,0,0,1-1,.81,2.81,2.81,0,0,1-1.19.22,2.18,2.18,0,0,1-1.5-.49,1.82,1.82,0,0,1-.54-1.41c0-1.29,1-2,3.11-2l1.09,0v-.4a1.6,1.6,0,0,0-.33-1.11,1.32,1.32,0,0,0-1-.36,4.18,4.18,0,0,0-1.81.49l-.3-.75a4.78,4.78,0,0,1,1-.4,4.39,4.39,0,0,1,1.13-.15,2.42,2.42,0,0,1,1.7.51,2.14,2.14,0,0,1,.56,1.64v4.38Zm-2.2-.69a2,2,0,0,0,1.43-.49,1.89,1.89,0,0,0,.52-1.4v-.58l-1,0a3.6,3.6,0,0,0-1.67.36,1.11,1.11,0,0,0-.51,1,1,1,0,0,0,.32.8,1.33,1.33,0,0,0,.89.27" transform="translate(0.7 -67.02)"/><path class="cls-6" d="M110.62,1137.87v-4.18a1.73,1.73,0,0,0-.33-1.15,1.26,1.26,0,0,0-1-.38,1.64,1.64,0,0,0-1.34.52,2.47,2.47,0,0,0-.43,1.6v3.59h-1v-4.18a1.73,1.73,0,0,0-.33-1.15,1.24,1.24,0,0,0-1-.38,1.6,1.6,0,0,0-1.34.54,3,3,0,0,0-.42,1.8v3.37h-1v-6.42h.79l.16.88h.05a1.86,1.86,0,0,1,.78-.74,2.4,2.4,0,0,1,1.12-.26,1.91,1.91,0,0,1,2,1.09h0a2,2,0,0,1,.84-.8,2.61,2.61,0,0,1,1.24-.29,2.19,2.19,0,0,1,1.63.56,2.5,2.5,0,0,1,.54,1.79v4.19Z" transform="translate(0.7 -67.02)"/><path class="cls-6" d="M116.31,1138a3,3,0,0,1-2.25-.87,3.35,3.35,0,0,1-.82-2.41,3.74,3.74,0,0,1,.76-2.47,2.55,2.55,0,0,1,2.06-.91,2.42,2.42,0,0,1,1.91.79,3.09,3.09,0,0,1,.7,2.1v.61h-4.43a2.5,2.5,0,0,0,.58,1.72,2,2,0,0,0,1.52.59,5.15,5.15,0,0,0,2-.44v.87a4.77,4.77,0,0,1-1,.32,5.85,5.85,0,0,1-1.11.1m-.27-5.85a1.58,1.58,0,0,0-1.23.51,2.25,2.25,0,0,0-.54,1.39h3.36a2.17,2.17,0,0,0-.41-1.41,1.49,1.49,0,0,0-1.18-.49" transform="translate(0.7 -67.02)"/><path class="cls-6" d="M120.19,1132.07c0-.52.23-.79.69-.79s.72.27.72.79a.87.87,0,0,1-.19.59.69.69,0,0,1-.53.21.72.72,0,0,1-.5-.19.8.8,0,0,1-.19-.61m0,5.18a.9.9,0,0,1,.18-.6.65.65,0,0,1,.51-.2.72.72,0,0,1,.53.2,1,1,0,0,1,0,1.18.69.69,0,0,1-.53.21.68.68,0,0,1-.5-.19.79.79,0,0,1-.19-.6" transform="translate(0.7 -67.02)"/><line class="cls-9" x1="126.94" y1="1070.51" x2="337.85" y2="1070.51"/><rect class="cls-8" x="0.7" y="1089.34" width="841.89" height="33.19"/><rect class="cls-10" x="0.7" y="1089.34" width="841.89" height="33.19"/></g><text class="cls-11" transform="translate(129.11 1111.38)"> </text><text class="cls-11" transform="translate(216.29 1111.38)"> </text><text class="cls-11" transform="translate(303.47 1111.38)"><tspan xml:space="preserve">MADE BY STEPH PIPER  -  MAKERQUEEN AU</tspan></text><g class="cls-5"><path class="cls-7" d="M726.39,1152.44a26,26,0,1,1-25.95-26,26,26,0,0,1,25.95,26" transform="translate(0.7 -67.02)"/><circle class="cls-12" cx="700.44" cy="1152.44" r="25.96" transform="translate(-43.01 -39.29) rotate(-2.2)"/><path class="cls-6" d="M692.39,1166.54a.35.35,0,0,1-.26-.42,4.54,4.54,0,0,0-.47-2.95.34.34,0,0,1,.08-.37l5-5a.35.35,0,0,1,.49.49l-4.84,4.84a4.83,4.83,0,0,1,.42,3.15.34.34,0,0,1-.42.26" transform="translate(0.7 -67.02)"/><path class="cls-6" d="M705.89,1149.14a.34.34,0,0,0-.49,0l-1,1a.35.35,0,1,0,.49.49l1-1a.34.34,0,0,0,0-.49" transform="translate(0.7 -67.02)"/><path class="cls-6" d="M714.8,1164.2a3,3,0,0,0-.52-.68.35.35,0,0,1,0-.5.36.36,0,0,1,.49,0,3.59,3.59,0,0,1,.64.84.35.35,0,0,1-.61.34m-1.51-1.67-6.92-6.92a3,3,0,0,0-1.35-.77,7.23,7.23,0,0,1-2.56-1.23.35.35,0,1,1,.42-.56,6.42,6.42,0,0,0,2.31,1.11,3.58,3.58,0,0,1,1.67.95l6.93,6.92a.37.37,0,0,1,0,.5.35.35,0,0,1-.5,0" transform="translate(0.7 -67.02)"/><path class="cls-6" d="M718.39,1146.63a.37.37,0,0,0-.71,0c-.26,1.13-.62,1.25-1.17,1.43a.36.36,0,0,0,0,.69,1.52,1.52,0,0,1,1.17,1.42.36.36,0,0,0,.71,0c.26-1.12.65-1.25,1.18-1.42a.36.36,0,0,0,0-.69c-.51-.17-.91-.28-1.18-1.43M718,1149a1.84,1.84,0,0,0-.56-.6,1.75,1.75,0,0,0,.56-.63,1.92,1.92,0,0,0,.54.63,1.88,1.88,0,0,0-.54.6" transform="translate(0.7 -67.02)"/><path class="cls-6" d="M686.47,1158.81a.37.37,0,0,0,.71,0c.26-1.13.65-1.25,1.18-1.43a.36.36,0,0,0,0-.69c-.51-.17-.91-.28-1.18-1.43a.37.37,0,0,0-.71,0c-.26,1.13-.62,1.25-1.17,1.43a.36.36,0,0,0,0,.69c.91.3,1,.75,1.17,1.43m.36-2.4a.63.63,0,0,1,0,1.24,1.77,1.77,0,0,0-.56-.61,1.75,1.75,0,0,0,.56-.63" transform="translate(0.7 -67.02)"/><path class="cls-6" d="M701.86,1164.1c-.51-.17-.91-.28-1.17-1.43a.37.37,0,0,0-.71,0c-.26,1.13-.63,1.25-1.18,1.43a.36.36,0,0,0,0,.69c.92.3,1,.75,1.18,1.42a.36.36,0,0,0,.71,0c.26-1.12.64-1.25,1.17-1.42a.36.36,0,0,0,0-.69m-1.52,1a2,2,0,0,0-.57-.6,1.75,1.75,0,0,0,.56-.63,1.93,1.93,0,0,0,.55.63,1.77,1.77,0,0,0-.54.6" transform="translate(0.7 -67.02)"/><path class="cls-6" d="M703.51,1135.93c.92.3,1,.75,1.18,1.42a.36.36,0,0,0,.71,0c.26-1.12.64-1.25,1.17-1.42a.37.37,0,0,0,0-.7c-.51-.16-.91-.27-1.17-1.42a.37.37,0,0,0-.71,0c-.26,1.12-.62,1.24-1.18,1.43a.36.36,0,0,0,0,.69m1.53-1a1.84,1.84,0,0,0,.55.63,2,2,0,0,0-.54.61,1.89,1.89,0,0,0-.57-.6,1.78,1.78,0,0,0,.56-.64" transform="translate(0.7 -67.02)"/><path class="cls-6" d="M703.81,1159.67a.36.36,0,0,0,0,.49l6,6a.36.36,0,0,0,.49,0,.35.35,0,0,0,0-.5l-6-6a.35.35,0,0,0-.5,0" transform="translate(0.7 -67.02)"/><path class="cls-6" d="M712.76,1163.66a.35.35,0,0,0,0-.5l-6-6a.35.35,0,0,0-.5,0,.36.36,0,0,0,0,.49l6,6a.36.36,0,0,0,.49,0" transform="translate(0.7 -67.02)"/><path class="cls-6" d="M707.65,1154.08a.35.35,0,1,0,.49,0,.34.34,0,0,0-.49,0" transform="translate(0.7 -67.02)"/><path class="cls-6" d="M710,1155.9a15.68,15.68,0,0,0,3.53-1.49c1.73-1,2.65-2.26,2.65-3.55s-.83-2.39-2.38-3.39l.3-.11a5.63,5.63,0,0,0,1.88-1.25l.07-.07a.35.35,0,0,0,0-.49.36.36,0,0,0-.5,0l-.06.06a4.85,4.85,0,0,1-2.54,1.36,15.14,15.14,0,0,0-1.39-.63l-.29-.11a4,4,0,0,0,1.68,0,.35.35,0,0,0,.26-.42.35.35,0,0,0-.42-.27,3.18,3.18,0,0,1-1.53,0,1.51,1.51,0,0,0,0-.7,1.59,1.59,0,0,0-1.55-1.21,1.74,1.74,0,0,0-.39.05,1.42,1.42,0,0,0-.42.22,3.06,3.06,0,0,1-.31,1l0,0,0,.07,0,.06,0,.06a.1.1,0,0,0,0,0l0,.06-.07.09h0l-.77-.16,0,0,.08-.08,0,0,0,0,0-.06,0,0,0-.06v0l.05-.06v0l0-.06v0a.21.21,0,0,0,0-.06l0,0s0,0,0,0l0-.06v0a.42.42,0,0,1,0-.1h0a2.26,2.26,0,0,0-.54-2.33,2,2,0,0,0-.52-.39,5,5,0,0,1,5.76-4.4.13.13,0,0,1,.06.23l-3.16,3.16a.36.36,0,0,0,0,.49l3.31,3.31a.35.35,0,0,0,.5,0l3.16-3.16a.13.13,0,0,1,.22.07,4.84,4.84,0,0,1-.08,2,.36.36,0,0,0,.26.43.34.34,0,0,0,.42-.26,5.48,5.48,0,0,0,.09-2.28.83.83,0,0,0-1.41-.45l-2.91,2.91-2.82-2.82,2.92-2.91a.83.83,0,0,0-.45-1.41,5.65,5.65,0,0,0-6.54,4.85,2.53,2.53,0,0,0-.89,0,4,4,0,0,1,.18.7h0c0,.05,0,.09,0,.13v0s0,.08,0,.12v0s0,.1,0,.15,0,.12,0,.19v.09s0,0,0,.08,0,.09,0,.14h0a4.8,4.8,0,0,1-.55,1.78l-.74-.07a4.21,4.21,0,0,0,.63-2h0v-.32s0,0,0-.06a.17.17,0,0,0,0-.07.22.22,0,0,0,0-.08.13.13,0,0,0,0-.06.19.19,0,0,0,0-.08V1142a.19.19,0,0,1,0-.08s0,0,0-.06,0-.06,0-.09l0,0,0-.1v0a14.32,14.32,0,0,0-2.42-3.63c-.54-.66-1.1-1.34-1.56-2-.48.69-1,1.39-1.61,2.07a12,12,0,0,0-2.5,3.86v0l0,.11s0,0,0,0,0,.06,0,.09a.17.17,0,0,1,0,.07.2.2,0,0,1,0,.07v.45h0a4.21,4.21,0,0,0,.63,2l-.74.07a4.8,4.8,0,0,1-.55-1.78h0a.66.66,0,0,1,0-.14s0-.05,0-.08v-.09c0-.07,0-.13,0-.19s0-.1,0-.15v0s0-.07,0-.11v0s0-.06,0-.1v0a.5.5,0,0,0,0-.12v0a3.23,3.23,0,0,1,.14-.51,2.47,2.47,0,0,0-.6-.08,2.25,2.25,0,0,0-2.25,2.25v.11h0a2.33,2.33,0,0,0,.45,1.23h0l.06.07,0,0,.05,0,.07.08.07.06-.78.17a2.93,2.93,0,0,1-.57-1.21.24.24,0,0,0,.08-.06.35.35,0,0,0,0-.49l-2.08-2.08-.45-1.39a.47.47,0,0,0-.08-.14l-3.38-3.38a.37.37,0,0,0-.5,0l-3,3a.35.35,0,0,0,0,.5l3.37,3.38a.46.46,0,0,0,.15.09l1.35.41,2.23,2.23-.33.13c-3,1.18-4.63,2.78-4.63,4.51,0,1.29.92,2.52,2.65,3.55a18.82,18.82,0,0,0,5.91,2.08l-3.44,3.43a5.68,5.68,0,0,0-7.4,6.31.83.83,0,0,0,1.41.45l2.91-2.92,2.82,2.82-2.91,2.91a.83.83,0,0,0,.44,1.41,5.66,5.66,0,0,0,6.3-7.39l5-5a3.06,3.06,0,0,1,.13.43h0a5.22,5.22,0,0,0,1.37,2.43l7.94,7.93a5.26,5.26,0,1,0,7.43-7.44Zm-4.16-10.27c.91.13,1.78.3,2.6.49l-2,2a.35.35,0,0,0,.49.49l2.32-2.32a20.94,20.94,0,0,1,2.07.68l.1,0a4.64,4.64,0,0,1-1.21-.29.36.36,0,0,0-.37.08l-5.31,5.31a5,5,0,0,1-1.1-.82l-.26-.26a1.85,1.85,0,0,0-.13-2.6Zm-5.92-5.82a10.1,10.1,0,0,0,.61-.81.34.34,0,0,1,.29-.16.36.36,0,0,1,.29.16,6.47,6.47,0,0,0,.59.79,3.35,3.35,0,0,1,1,1.86,1.88,1.88,0,1,1-3.76,0,3.24,3.24,0,0,1,1-1.84m.89,5.48a37.41,37.41,0,0,1,4.16.23l-2.57,2.57a1.87,1.87,0,0,0-1.92.43l-1.41,1.42-4.16-4.17a35.69,35.69,0,0,1,5.9-.48m-6.66.62a.3.3,0,0,0,.1.19l4.33,4.33-1.49,1.49-5.4-5.4c.77-.23,1.6-.44,2.46-.61m-3.88-1.09a2,2,0,0,0,0,.24l-1.63-1.62a.24.24,0,0,0-.14-.09l-1.35-.42-3.07-3.07,2.48-2.48,3.07,3.07.45,1.39a.34.34,0,0,0,.09.14l1.63,1.63a1.61,1.61,0,0,0-1.49,1.21m-1.84,9c-1-.63-2.3-1.65-2.3-3s1.52-2.81,4.19-3.86c.2-.08.41-.16.63-.23l5.64,5.64-1.41,1.41a1.86,1.86,0,0,0-.5,1.67,1.93,1.93,0,0,0-.19.38,19,19,0,0,1-6.06-2.06m9.27,5.14-4.22,4.22a.38.38,0,0,0-.08.37,5,5,0,0,1-5.45,6.67.13.13,0,0,1-.07-.22l3.16-3.16a.35.35,0,0,0,0-.5L687.7,1163a.36.36,0,0,0-.49,0l-3.16,3.16a.13.13,0,0,1-.23-.07,5,5,0,0,1,6.68-5.45.38.38,0,0,0,.37-.08l3.44-3.44.78-.78a1.84,1.84,0,0,0,2.6.13,5.7,5.7,0,0,1,1.08,1.37Zm13.74,11.14a4.56,4.56,0,0,1-2.4-1.26l-7.93-7.93a4.66,4.66,0,0,1-1.2-2.1h0a5.19,5.19,0,0,0-.82-1.8,7.78,7.78,0,0,0-.88-1l.51-.51,3.93-3.93.26.25a5.7,5.7,0,0,0,1.11.86c1.12.66,1.64.49,2.64,1.08a.35.35,0,1,0,.35-.6,7.08,7.08,0,0,0-1.81-.7l5-5a5.61,5.61,0,0,0,2.67.23c1.71.93,2.66,2,2.66,3.15,0,1.3-1.25,2.32-2.3,3a16,16,0,0,1-3.76,1.53l-.27-.27a.36.36,0,0,0-.49,0,.33.33,0,0,0,0,.47v0h0l.55.56,6.27,6.27a4.49,4.49,0,0,1,1.26,2.39,8,8,0,0,0-5.31,5.31" transform="translate(0.7 -67.02)"/><path class="cls-6" d="M716.77,1144.37a.37.37,0,0,0-.48.14.35.35,0,1,0,.48-.14" transform="translate(0.7 -67.02)"/><path class="cls-6" d="M702.66,1141.65a1.88,1.88,0,1,1-3.76,0,3.24,3.24,0,0,1,1-1.84,10.1,10.1,0,0,0,.61-.81.34.34,0,0,1,.29-.16.36.36,0,0,1,.29.16,6.47,6.47,0,0,0,.59.79,3.35,3.35,0,0,1,1,1.86" transform="translate(0.7 -67.02)"/><path class="cls-7" d="M701.67,1139.79a6.47,6.47,0,0,1-.59-.79.36.36,0,0,0-.29-.16.34.34,0,0,0-.29.16,8.34,8.34,0,0,1-.62.81,3.28,3.28,0,0,0-1,1.84,1.88,1.88,0,1,0,3.76,0,3.35,3.35,0,0,0-1-1.86m-.89,3.06a1.2,1.2,0,0,1-1.2-1.2c0-.4.42-.91.83-1.41.13-.15.26-.3.38-.46l.35.45c.41.5.84,1,.84,1.42a1.2,1.2,0,0,1-1.2,1.2" transform="translate(0.7 -67.02)"/><path class="cls-6" d="M702,1141.65a1.2,1.2,0,0,1-2.4,0c0-.4.42-.91.83-1.41.13-.15.26-.3.38-.46l.35.45c.41.5.84,1,.84,1.42" transform="translate(0.7 -67.02)"/><path class="cls-6" d="M102.73,210.58a4.13,4.13,0,0,1,1.85-3.61l.3.37a4.06,4.06,0,0,0,0,6.46l-.3.36a4,4,0,0,1-1.85-3.58" transform="translate(0.7 -67.02)"/><path class="cls-6" d="M108.05,212.28a1.19,1.19,0,0,1-1.33,1.16,1.94,1.94,0,0,1-1.36-.5l.3-.4a1.72,1.72,0,0,0,1.06.42c.48,0,.76-.28.76-.63s-.16-.6-.91-.88-1-.63-1-1.17a1.12,1.12,0,0,1,1.24-1.07,1.67,1.67,0,0,1,1.19.42l-.3.4a1.22,1.22,0,0,0-.86-.34c-.46,0-.69.28-.69.54s.17.56.8.79,1.14.67,1.14,1.26" transform="translate(0.7 -67.02)"/><path class="cls-6" d="M110.36,213.44a1.46,1.46,0,0,1-1.55-1.56v-1.09a1.48,1.48,0,0,1,1.57-1.58,1.44,1.44,0,0,1,1.53,1.56v.54h-2.53v.55a1,1,0,0,0,1,1.07,1,1,0,0,0,1-1l.54.09a1.5,1.5,0,0,1-1.54,1.39m1-2.55v-.13a1,1,0,1,0-2,0v.13Z" transform="translate(0.7 -67.02)"/><path class="cls-6" d="M115,209.29v.46h-1.27v2.53a.57.57,0,0,0,.63.65,2.31,2.31,0,0,0,.55-.08l.09.47a2.44,2.44,0,0,1-.81.12,1,1,0,0,1-1-1.08v-2.61h-.68v-.46h.68v-1h.57v1Z" transform="translate(0.7 -67.02)"/><path class="cls-6" d="M117.68,209.29l1.08,3.35,1.07-3.35h.59L119,213.52c-.32.92-.76,1.2-1.29,1.2a1.13,1.13,0,0,1-.53-.11l.12-.45a1,1,0,0,0,.36.06c.36,0,.63-.18.85-.86l-1.41-4.07Z" transform="translate(0.7 -67.02)"/><path class="cls-6" d="M122.55,209.21a1.45,1.45,0,0,1,1.55,1.56v1.1a1.49,1.49,0,0,1-1.57,1.57,1.45,1.45,0,0,1-1.55-1.56v-1.09a1.48,1.48,0,0,1,1.57-1.58m0,3.72a1,1,0,0,0,1-1.07V210.8a1,1,0,1,0-2,0v1.06a1,1,0,0,0,1,1.07" transform="translate(0.7 -67.02)"/><path class="cls-6" d="M127.64,213.36l0-.57a1.29,1.29,0,0,1-1.19.65c-.79,0-1.32-.51-1.32-1.57V209.3h.57v2.44c0,.82.34,1.19.92,1.19s1-.35,1-1.13v-2.5h.57v4.06Z" transform="translate(0.7 -67.02)"/><path class="cls-6" d="M129.76,209.29l0,.74a1.47,1.47,0,0,1,1.43-.82v.56H131c-.71,0-1.19.44-1.19,1.45v2.14h-.57v-4.07Z" transform="translate(0.7 -67.02)"/><path class="cls-6" d="M135.23,209.21a1.45,1.45,0,0,1,1.55,1.56v1.1a1.49,1.49,0,0,1-1.57,1.57,1.45,1.45,0,0,1-1.55-1.56v-1.09a1.48,1.48,0,0,1,1.57-1.58m0,3.72a1,1,0,0,0,1-1.07V210.8a1,1,0,1,0-2,0v1.06a1,1,0,0,0,1,1.07" transform="translate(0.7 -67.02)"/><polygon class="cls-6" points="138.66 142.28 139.55 145.44 140.36 142.28 140.75 142.28 141.56 145.45 142.45 142.28 143.04 142.28 141.82 146.34 141.31 146.34 140.54 143.44 139.77 146.34 139.26 146.34 138.04 142.28 138.66 142.28"/><path class="cls-6" d="M143.48,209.29l0,.58a1.29,1.29,0,0,1,1.19-.66c.79,0,1.32.52,1.32,1.58v2.57h-.57v-2.44c0-.82-.34-1.19-.92-1.19s-1,.35-1,1.13v2.5H143v-4.07Z" transform="translate(0.7 -67.02)"/><path class="cls-6" d="M150.2,214.21a1.06,1.06,0,0,0,1.16-1.21v-.47a1.3,1.3,0,0,1-1.13.58,1.36,1.36,0,0,1-1.42-1.5v-.89a1.38,1.38,0,0,1,1.44-1.51,1.3,1.3,0,0,1,1.15.6l0-.52h.5V213a1.58,1.58,0,0,1-1.7,1.74,2.71,2.71,0,0,1-1.32-.28l.19-.47a2.44,2.44,0,0,0,1.1.24m.17-4.48a1,1,0,0,0-1,1.07v.74a1,1,0,1,0,2,0v-.74a1,1,0,0,0-1-1.07" transform="translate(0.7 -67.02)"/><path class="cls-6" d="M154.54,209.21a1.45,1.45,0,0,1,1.55,1.56v1.1a1.48,1.48,0,0,1-1.57,1.57,1.45,1.45,0,0,1-1.55-1.56v-1.09a1.48,1.48,0,0,1,1.57-1.58m0,3.72a1,1,0,0,0,1-1.07V210.8a1,1,0,1,0-2,0v1.06a1,1,0,0,0,1,1.07" transform="translate(0.7 -67.02)"/><path class="cls-6" d="M159.6,213.36l-.06-.44a1.38,1.38,0,0,1-1.16.52,1.27,1.27,0,0,1-1.41-1.25,1.3,1.3,0,0,1,1.43-1.27,1.37,1.37,0,0,1,1.08.43v-.5a1,1,0,0,0-1-1.12,2,2,0,0,0-1,.25l-.17-.45a2.27,2.27,0,0,1,1.28-.31,1.44,1.44,0,0,1,1.54,1.6v2.54Zm-.08-1.2c0-.47-.4-.81-1-.81s-1,.34-1,.81a.87.87,0,0,0,1,.84.89.89,0,0,0,1-.84" transform="translate(0.7 -67.02)"/><rect class="cls-6" x="161.88" y="140.75" width="0.59" height="5.6"/><path class="cls-6" d="M164.8,210.55a4.13,4.13,0,0,1-1.86,3.61l-.29-.37a4.07,4.07,0,0,0,0-6.45l.29-.37a4,4,0,0,1,1.86,3.58" transform="translate(0.7 -67.02)"/><path class="cls-6" d="M208.43,169a4.13,4.13,0,0,1,1.85-3.61l.3.37a4.06,4.06,0,0,0,0,6.46l-.3.36a4,4,0,0,1-1.85-3.58" transform="translate(0.7 -67.02)"/><path class="cls-6" d="M213.75,170.71a1.2,1.2,0,0,1-1.33,1.17,1.92,1.92,0,0,1-1.36-.51l.3-.4a1.72,1.72,0,0,0,1.06.42c.48,0,.76-.28.76-.63s-.16-.6-.92-.88-1-.63-1-1.17a1.11,1.11,0,0,1,1.24-1.07,1.67,1.67,0,0,1,1.19.42l-.3.4a1.24,1.24,0,0,0-.86-.33c-.46,0-.69.27-.69.53s.17.56.8.79,1.14.67,1.14,1.26" transform="translate(0.7 -67.02)"/><path class="cls-6" d="M216.06,171.88a1.46,1.46,0,0,1-1.55-1.56v-1.1a1.48,1.48,0,0,1,1.57-1.57,1.43,1.43,0,0,1,1.53,1.55v.54h-2.53v.55a1,1,0,0,0,1,1.07,1,1,0,0,0,1-1l.54.09a1.51,1.51,0,0,1-1.54,1.4m1-2.56v-.13a1,1,0,1,0-2,0v.13Z" transform="translate(0.7 -67.02)"/><path class="cls-6" d="M220.69,167.73v.45h-1.27v2.54a.56.56,0,0,0,.63.64,2.31,2.31,0,0,0,.55-.08l.09.47a2.44,2.44,0,0,1-.81.12,1,1,0,0,1-1-1.07v-2.62h-.68v-.45h.68v-1h.57v1Z" transform="translate(0.7 -67.02)"/><path class="cls-6" d="M223.38,167.73l1.08,3.34,1.07-3.34h.59L224.66,172c-.32.92-.76,1.2-1.29,1.2a1.08,1.08,0,0,1-.53-.11l.12-.45a1,1,0,0,0,.36.06c.36,0,.63-.18.85-.86l-1.41-4.06Z" transform="translate(0.7 -67.02)"/><path class="cls-6" d="M228.25,167.65a1.44,1.44,0,0,1,1.55,1.55v1.1a1.49,1.49,0,0,1-1.57,1.58,1.46,1.46,0,0,1-1.55-1.56v-1.1a1.48,1.48,0,0,1,1.57-1.57m0,3.71a1,1,0,0,0,1-1.07v-1.06a1,1,0,1,0-2,0v1.06a1,1,0,0,0,1,1.07" transform="translate(0.7 -67.02)"/><path class="cls-6" d="M233.34,171.79l0-.57a1.29,1.29,0,0,1-1.19.65c-.79,0-1.32-.51-1.32-1.57v-2.57h.57v2.44c0,.82.34,1.19.92,1.19s1-.35,1-1.13v-2.5h.57v4.06Z" transform="translate(0.7 -67.02)"/><path class="cls-6" d="M235.46,167.73l0,.73a1.45,1.45,0,0,1,1.43-.81v.55h-.21c-.71,0-1.19.44-1.19,1.45v2.14H235v-4.06Z" transform="translate(0.7 -67.02)"/><path class="cls-6" d="M240.93,167.65a1.44,1.44,0,0,1,1.55,1.55v1.1a1.49,1.49,0,0,1-1.57,1.58,1.46,1.46,0,0,1-1.55-1.56v-1.1a1.48,1.48,0,0,1,1.57-1.57m0,3.71a1,1,0,0,0,1-1.07v-1.06a1,1,0,1,0-2,0v1.06a1,1,0,0,0,1,1.07" transform="translate(0.7 -67.02)"/><polygon class="cls-6" points="244.36 100.71 245.25 103.87 246.06 100.71 246.44 100.71 247.26 103.88 248.15 100.71 248.74 100.71 247.52 104.78 247.01 104.78 246.24 101.87 245.47 104.78 244.96 104.78 243.74 100.71 244.36 100.71"/><path class="cls-6" d="M249.18,167.73l0,.57a1.29,1.29,0,0,1,1.19-.65c.79,0,1.32.51,1.32,1.57v2.57h-.57v-2.44c0-.82-.34-1.19-.92-1.19s-1,.35-1,1.13v2.5h-.57v-4.06Z" transform="translate(0.7 -67.02)"/><path class="cls-6" d="M255.9,172.64a1.06,1.06,0,0,0,1.16-1.2V171a1.31,1.31,0,0,1-1.13.58,1.36,1.36,0,0,1-1.42-1.5v-.89a1.38,1.38,0,0,1,1.44-1.5,1.25,1.25,0,0,1,1.14.6l0-.52h.5v3.68a1.58,1.58,0,0,1-1.7,1.74,2.71,2.71,0,0,1-1.32-.28l.19-.47a2.44,2.44,0,0,0,1.1.24m.17-4.48a1,1,0,0,0-1,1.07V170a1,1,0,1,0,2,0v-.74a1,1,0,0,0-1-1.07" transform="translate(0.7 -67.02)"/><path class="cls-6" d="M260.24,167.65a1.44,1.44,0,0,1,1.55,1.55v1.1a1.49,1.49,0,0,1-1.57,1.58,1.46,1.46,0,0,1-1.55-1.56v-1.1a1.48,1.48,0,0,1,1.57-1.57m0,3.71a1,1,0,0,0,1-1.07v-1.06a1,1,0,1,0-2,0v1.06a1,1,0,0,0,1,1.07" transform="translate(0.7 -67.02)"/><path class="cls-6" d="M265.3,171.79l-.06-.43a1.4,1.4,0,0,1-1.16.51,1.27,1.27,0,0,1-1.41-1.25,1.3,1.3,0,0,1,1.43-1.27,1.37,1.37,0,0,1,1.08.43v-.5a1,1,0,0,0-1-1.12,2,2,0,0,0-1,.25l-.17-.45a2.27,2.27,0,0,1,1.28-.31,1.44,1.44,0,0,1,1.54,1.6v2.54Zm-.08-1.19c0-.48-.4-.82-1-.82s-1,.34-1,.82a.87.87,0,0,0,1,.83.89.89,0,0,0,1-.83" transform="translate(0.7 -67.02)"/><rect class="cls-6" x="267.57" y="99.18" width="0.59" height="5.6"/><path class="cls-6" d="M270.5,169a4.13,4.13,0,0,1-1.86,3.61l-.29-.37a4.07,4.07,0,0,0,0-6.45l.29-.37A4,4,0,0,1,270.5,169" transform="translate(0.7 -67.02)"/><path class="cls-6" d="M723,212a4.14,4.14,0,0,1,1.86-3.62l.29.38a4.05,4.05,0,0,0,0,6.45l-.29.37A4,4,0,0,1,723,212" transform="translate(0.7 -67.02)"/><path class="cls-6" d="M728.35,213.67a1.2,1.2,0,0,1-1.33,1.17,1.94,1.94,0,0,1-1.36-.5l.3-.4a1.72,1.72,0,0,0,1.06.42.67.67,0,0,0,.76-.63c0-.31-.16-.61-.92-.88s-1-.63-1-1.18a1.11,1.11,0,0,1,1.24-1.06,1.67,1.67,0,0,1,1.19.42l-.3.4a1.22,1.22,0,0,0-.86-.34c-.46,0-.69.27-.69.54s.17.56.8.79,1.14.67,1.14,1.25" transform="translate(0.7 -67.02)"/><path class="cls-6" d="M730.66,214.84a1.45,1.45,0,0,1-1.55-1.56v-1.1a1.48,1.48,0,0,1,1.57-1.57,1.43,1.43,0,0,1,1.52,1.56v.53h-2.52v.56a1,1,0,0,0,1,1.07,1,1,0,0,0,1-1l.54.1a1.5,1.5,0,0,1-1.54,1.39m1-2.55v-.14a1,1,0,1,0-2,0v.14Z" transform="translate(0.7 -67.02)"/><path class="cls-6" d="M735.29,210.69v.45H734v2.54a.57.57,0,0,0,.64.65,2.31,2.31,0,0,0,.55-.08l.09.47a2.52,2.52,0,0,1-.81.12,1,1,0,0,1-1-1.08v-2.62h-.68v-.45h.68v-1.05H734v1.05Z" transform="translate(0.7 -67.02)"/><path class="cls-6" d="M738,210.69l1.08,3.34,1.08-3.34h.59l-1.47,4.23c-.32.91-.75,1.2-1.28,1.2a1.08,1.08,0,0,1-.53-.11l.12-.46a1,1,0,0,0,.36.06c.36,0,.63-.18.85-.85l-1.41-4.07Z" transform="translate(0.7 -67.02)"/><path class="cls-6" d="M742.85,210.61a1.45,1.45,0,0,1,1.55,1.56v1.09a1.49,1.49,0,0,1-1.57,1.58,1.45,1.45,0,0,1-1.55-1.56v-1.1a1.48,1.48,0,0,1,1.57-1.57m0,3.72a1,1,0,0,0,1-1.07v-1.07a1,1,0,1,0-2,0v1.07a1,1,0,0,0,1,1.07" transform="translate(0.7 -67.02)"/><path class="cls-6" d="M747.94,214.76l0-.58a1.29,1.29,0,0,1-1.19.66c-.79,0-1.32-.52-1.32-1.58v-2.57H746v2.45c0,.81.35,1.19.92,1.19s1-.35,1-1.14v-2.5h.57v4.07Z" transform="translate(0.7 -67.02)"/><path class="cls-6" d="M750.05,210.69l0,.73a1.47,1.47,0,0,1,1.44-.81v.56h-.21c-.71,0-1.19.44-1.19,1.45v2.14h-.57v-4.07Z" transform="translate(0.7 -67.02)"/><path class="cls-6" d="M755.53,210.61a1.45,1.45,0,0,1,1.55,1.56v1.09a1.49,1.49,0,0,1-1.57,1.58,1.45,1.45,0,0,1-1.55-1.56v-1.1a1.47,1.47,0,0,1,1.57-1.57m0,3.72a1,1,0,0,0,1-1.07v-1.07a1,1,0,1,0-2,0v1.07a1,1,0,0,0,1,1.07" transform="translate(0.7 -67.02)"/><polygon class="cls-6" points="758.96 143.67 759.84 146.84 760.66 143.67 761.04 143.67 761.86 146.84 762.75 143.67 763.34 143.67 762.11 147.74 761.61 147.74 760.84 144.83 760.07 147.74 759.56 147.74 758.34 143.67 758.96 143.67"/><path class="cls-6" d="M763.77,210.69l0,.57a1.32,1.32,0,0,1,1.2-.65c.79,0,1.32.52,1.32,1.57v2.58h-.57v-2.45c0-.81-.35-1.19-.92-1.19s-1,.35-1,1.14v2.5h-.56v-4.07Z" transform="translate(0.7 -67.02)"/><path class="cls-6" d="M770.49,215.61a1.07,1.07,0,0,0,1.17-1.21v-.47a1.32,1.32,0,0,1-1.14.57,1.35,1.35,0,0,1-1.41-1.49v-.9a1.38,1.38,0,0,1,1.44-1.5,1.28,1.28,0,0,1,1.14.6l0-.52h.5v3.69a1.58,1.58,0,0,1-1.71,1.74,2.69,2.69,0,0,1-1.31-.28l.19-.47a2.42,2.42,0,0,0,1.09.24m.18-4.49a1,1,0,0,0-1,1.07v.75a1,1,0,1,0,2,0v-.75a1,1,0,0,0-1-1.07" transform="translate(0.7 -67.02)"/><path class="cls-6" d="M774.84,210.61a1.45,1.45,0,0,1,1.55,1.56v1.09a1.49,1.49,0,0,1-1.57,1.58,1.45,1.45,0,0,1-1.55-1.56v-1.1a1.48,1.48,0,0,1,1.57-1.57m0,3.72a1,1,0,0,0,1-1.07v-1.07a1,1,0,1,0-2,0v1.07a1,1,0,0,0,1,1.07" transform="translate(0.7 -67.02)"/><path class="cls-6" d="M779.9,214.76l-.06-.44a1.39,1.39,0,0,1-1.16.52,1.27,1.27,0,0,1-1.41-1.26,1.3,1.3,0,0,1,1.43-1.27,1.38,1.38,0,0,1,1.08.43v-.49a1,1,0,0,0-1-1.13,1.94,1.94,0,0,0-1,.26l-.17-.46a2.25,2.25,0,0,1,1.27-.31,1.45,1.45,0,0,1,1.55,1.61v2.54Zm-.08-1.2c0-.48-.41-.82-1-.82a.84.84,0,1,0,0,1.65c.61,0,1-.35,1-.83" transform="translate(0.7 -67.02)"/><rect class="cls-6" x="782.17" y="142.14" width="0.59" height="5.6"/><path class="cls-6" d="M785.09,211.94a4.14,4.14,0,0,1-1.85,3.62l-.3-.38a4.05,4.05,0,0,0,0-6.45l.3-.37a4,4,0,0,1,1.85,3.58" transform="translate(0.7 -67.02)"/><path class="cls-6" d="M415.31,169.49a4.13,4.13,0,0,1,1.86-3.61l.29.37a4.08,4.08,0,0,0,0,6.46l-.29.36a4,4,0,0,1-1.86-3.58" transform="translate(0.7 -67.02)"/><path class="cls-6" d="M420.64,171.19a1.19,1.19,0,0,1-1.33,1.16,1.94,1.94,0,0,1-1.36-.5l.3-.4a1.72,1.72,0,0,0,1.06.42c.48,0,.76-.28.76-.63s-.16-.61-.92-.88-1-.63-1-1.17a1.11,1.11,0,0,1,1.24-1.07,1.67,1.67,0,0,1,1.19.42l-.3.4a1.22,1.22,0,0,0-.86-.34c-.46,0-.69.27-.69.54s.17.56.8.79,1.14.67,1.14,1.26" transform="translate(0.7 -67.02)"/><path class="cls-6" d="M423,172.35a1.45,1.45,0,0,1-1.55-1.56V169.7a1.48,1.48,0,0,1,1.57-1.58,1.44,1.44,0,0,1,1.53,1.56v.54H422v.55a1,1,0,0,0,1,1.07,1,1,0,0,0,1-1l.54.09a1.5,1.5,0,0,1-1.54,1.39m1-2.55v-.13a1,1,0,1,0-2,0v.13Z" transform="translate(0.7 -67.02)"/><path class="cls-6" d="M427.58,168.2v.46h-1.27v2.53c0,.47.24.65.63.65a2.31,2.31,0,0,0,.55-.08l.09.47a2.44,2.44,0,0,1-.81.12,1,1,0,0,1-1-1.08v-2.61h-.68v-.46h.68v-1h.57v1Z" transform="translate(0.7 -67.02)"/><path class="cls-6" d="M430.27,168.2l1.08,3.35,1.07-3.35H433l-1.46,4.23c-.32.92-.76,1.2-1.29,1.2a1.08,1.08,0,0,1-.53-.11l.12-.45a1,1,0,0,0,.36.06c.36,0,.63-.18.85-.86l-1.41-4.07Z" transform="translate(0.7 -67.02)"/><path class="cls-6" d="M435.14,168.12a1.45,1.45,0,0,1,1.55,1.56v1.1a1.49,1.49,0,0,1-1.57,1.57,1.45,1.45,0,0,1-1.55-1.56V169.7a1.48,1.48,0,0,1,1.57-1.58m0,3.72a1,1,0,0,0,1-1.07v-1.06a1,1,0,1,0-2,0v1.06a1,1,0,0,0,1,1.07" transform="translate(0.7 -67.02)"/><path class="cls-6" d="M440.23,172.27l0-.57a1.29,1.29,0,0,1-1.19.65c-.79,0-1.32-.52-1.32-1.57V168.2h.57v2.45c0,.82.34,1.19.92,1.19s1-.35,1-1.13V168.2h.57v4.07Z" transform="translate(0.7 -67.02)"/><path class="cls-6" d="M442.35,168.2l0,.74a1.46,1.46,0,0,1,1.43-.82v.56h-.21c-.71,0-1.19.44-1.19,1.45v2.14h-.57V168.2Z" transform="translate(0.7 -67.02)"/><path class="cls-6" d="M447.82,168.12a1.45,1.45,0,0,1,1.55,1.56v1.1a1.49,1.49,0,0,1-1.57,1.57,1.45,1.45,0,0,1-1.55-1.56V169.7a1.48,1.48,0,0,1,1.57-1.58m0,3.72a1,1,0,0,0,1-1.07v-1.06a1,1,0,1,0-2,0v1.06a1,1,0,0,0,1,1.07" transform="translate(0.7 -67.02)"/><polygon class="cls-6" points="451.25 101.19 452.14 104.35 452.95 101.19 453.33 101.19 454.15 104.36 455.04 101.19 455.63 101.19 454.41 105.25 453.9 105.25 453.13 102.34 452.36 105.25 451.85 105.25 450.63 101.19 451.25 101.19"/><path class="cls-6" d="M456.07,168.2l0,.58a1.28,1.28,0,0,1,1.19-.66c.79,0,1.32.52,1.32,1.58v2.57H458v-2.44c0-.82-.34-1.19-.92-1.19s-1,.35-1,1.13v2.5h-.57V168.2Z" transform="translate(0.7 -67.02)"/><path class="cls-6" d="M462.79,173.12a1.06,1.06,0,0,0,1.16-1.21v-.47a1.31,1.31,0,0,1-1.13.58,1.36,1.36,0,0,1-1.42-1.5v-.89a1.38,1.38,0,0,1,1.44-1.51,1.27,1.27,0,0,1,1.14.6l0-.52h.5v3.69a1.58,1.58,0,0,1-1.7,1.74,2.71,2.71,0,0,1-1.32-.28l.19-.47a2.44,2.44,0,0,0,1.1.24m.17-4.48a1,1,0,0,0-1,1.07v.74a1,1,0,1,0,2,0v-.74a1,1,0,0,0-1-1.07" transform="translate(0.7 -67.02)"/><path class="cls-6" d="M467.13,168.12a1.45,1.45,0,0,1,1.55,1.56v1.1a1.49,1.49,0,0,1-1.57,1.57,1.45,1.45,0,0,1-1.55-1.56V169.7a1.48,1.48,0,0,1,1.57-1.58m0,3.72a1,1,0,0,0,1-1.07v-1.06a1,1,0,1,0-2,0v1.06a1,1,0,0,0,1,1.07" transform="translate(0.7 -67.02)"/><path class="cls-6" d="M472.19,172.27l-.06-.44a1.38,1.38,0,0,1-1.16.52,1.27,1.27,0,0,1-1.41-1.25,1.3,1.3,0,0,1,1.43-1.27,1.37,1.37,0,0,1,1.08.43v-.5a1,1,0,0,0-1-1.12,2,2,0,0,0-1,.25l-.17-.45a2.22,2.22,0,0,1,1.28-.32,1.45,1.45,0,0,1,1.54,1.61v2.54Zm-.08-1.2c0-.47-.4-.81-1-.81s-1,.34-1,.81a.87.87,0,0,0,1,.84.89.89,0,0,0,1-.84" transform="translate(0.7 -67.02)"/><rect class="cls-6" x="474.46" y="99.66" width="0.59" height="5.6"/><path class="cls-6" d="M477.39,169.46a4.13,4.13,0,0,1-1.86,3.61l-.29-.37a4.08,4.08,0,0,0,0-6.46l.29-.36a4,4,0,0,1,1.86,3.58" transform="translate(0.7 -67.02)"/><path class="cls-6" d="M621.2,169.49a4.13,4.13,0,0,1,1.85-3.61l.3.37a4.06,4.06,0,0,0,0,6.46l-.3.36a4,4,0,0,1-1.85-3.58" transform="translate(0.7 -67.02)"/><path class="cls-6" d="M626.53,171.19a1.19,1.19,0,0,1-1.33,1.16,2,2,0,0,1-1.37-.5l.31-.4a1.68,1.68,0,0,0,1.06.42c.48,0,.76-.28.76-.63s-.16-.61-.92-.88-1-.63-1-1.17a1.11,1.11,0,0,1,1.24-1.07,1.67,1.67,0,0,1,1.19.42l-.31.4a1.21,1.21,0,0,0-.85-.34c-.46,0-.7.27-.7.54s.17.56.8.79,1.15.67,1.15,1.26" transform="translate(0.7 -67.02)"/><path class="cls-6" d="M628.84,172.35a1.45,1.45,0,0,1-1.55-1.56V169.7a1.48,1.48,0,0,1,1.57-1.58,1.43,1.43,0,0,1,1.52,1.56v.54h-2.52v.55a1,1,0,0,0,1,1.07,1,1,0,0,0,1-1l.53.09a1.49,1.49,0,0,1-1.53,1.39m1-2.55v-.13a1,1,0,1,0-2,0v.13Z" transform="translate(0.7 -67.02)"/><path class="cls-6" d="M633.46,168.2v.46h-1.27v2.53a.57.57,0,0,0,.63.65,2.34,2.34,0,0,0,.56-.08l.08.47a2.42,2.42,0,0,1-.8.12,1,1,0,0,1-1-1.08v-2.61h-.68v-.46h.68v-1h.57v1Z" transform="translate(0.7 -67.02)"/><path class="cls-6" d="M636.15,168.2l1.08,3.35,1.07-3.35h.59l-1.46,4.23c-.32.92-.75,1.2-1.29,1.2a1.06,1.06,0,0,1-.52-.11l.12-.45a.93.93,0,0,0,.36.06c.36,0,.63-.18.84-.86l-1.4-4.07Z" transform="translate(0.7 -67.02)"/><path class="cls-6" d="M641,168.12a1.46,1.46,0,0,1,1.56,1.56v1.1a1.49,1.49,0,0,1-1.57,1.57,1.45,1.45,0,0,1-1.55-1.56V169.7a1.48,1.48,0,0,1,1.56-1.58m0,3.72a1,1,0,0,0,1-1.07v-1.06a1,1,0,1,0-2,0v1.06a1,1,0,0,0,1,1.07" transform="translate(0.7 -67.02)"/><path class="cls-6" d="M646.12,172.27l0-.57a1.3,1.3,0,0,1-1.2.65c-.79,0-1.31-.52-1.31-1.57V168.2h.56v2.45c0,.82.35,1.19.92,1.19s1-.35,1-1.13V168.2h.56v4.07Z" transform="translate(0.7 -67.02)"/><path class="cls-6" d="M648.23,168.2l0,.74a1.47,1.47,0,0,1,1.43-.82v.56h-.21c-.71,0-1.19.44-1.19,1.45v2.14h-.56V168.2Z" transform="translate(0.7 -67.02)"/><path class="cls-6" d="M653.7,168.12a1.45,1.45,0,0,1,1.55,1.56v1.1a1.48,1.48,0,0,1-1.56,1.57,1.46,1.46,0,0,1-1.56-1.56V169.7a1.48,1.48,0,0,1,1.57-1.58m0,3.72a1,1,0,0,0,1-1.07v-1.06a1,1,0,1,0-2,0v1.06a1,1,0,0,0,1,1.07" transform="translate(0.7 -67.02)"/><polygon class="cls-6" points="657.13 101.19 658.02 104.35 658.84 101.19 659.22 101.19 660.04 104.36 660.92 101.19 661.52 101.19 660.29 105.25 659.79 105.25 659.01 102.34 658.25 105.25 657.73 105.25 656.52 101.19 657.13 101.19"/><path class="cls-6" d="M662,168.2l0,.58a1.29,1.29,0,0,1,1.19-.66c.8,0,1.32.52,1.32,1.58v2.57h-.56v-2.44c0-.82-.35-1.19-.92-1.19s-1,.35-1,1.13v2.5h-.56V168.2Z" transform="translate(0.7 -67.02)"/><path class="cls-6" d="M668.67,173.12a1.07,1.07,0,0,0,1.17-1.21v-.47a1.32,1.32,0,0,1-1.14.58,1.35,1.35,0,0,1-1.41-1.5v-.89a1.38,1.38,0,0,1,1.44-1.51,1.28,1.28,0,0,1,1.14.6l0-.52h.51v3.69a1.58,1.58,0,0,1-1.71,1.74,2.76,2.76,0,0,1-1.32-.28l.2-.47a2.42,2.42,0,0,0,1.09.24m.18-4.48a1,1,0,0,0-1,1.07v.74a1,1,0,1,0,2,0v-.74a1,1,0,0,0-1-1.07" transform="translate(0.7 -67.02)"/><path class="cls-6" d="M673,168.12a1.45,1.45,0,0,1,1.55,1.56v1.1a1.49,1.49,0,0,1-1.57,1.57,1.45,1.45,0,0,1-1.55-1.56V169.7a1.48,1.48,0,0,1,1.57-1.58m0,3.72a1,1,0,0,0,1-1.07v-1.06a1,1,0,1,0-2,0v1.06a1,1,0,0,0,1,1.07" transform="translate(0.7 -67.02)"/><path class="cls-6" d="M678.08,172.27l-.06-.44a1.4,1.4,0,0,1-1.17.52,1.26,1.26,0,0,1-1.4-1.25,1.3,1.3,0,0,1,1.43-1.27,1.38,1.38,0,0,1,1.08.43v-.5a1,1,0,0,0-1.05-1.12,2,2,0,0,0-1,.25l-.18-.45a2.26,2.26,0,0,1,1.28-.32,1.45,1.45,0,0,1,1.55,1.61v2.54Zm-.08-1.2c0-.47-.41-.81-1-.81s-1,.34-1,.81a.87.87,0,0,0,1,.84.9.9,0,0,0,1-.84" transform="translate(0.7 -67.02)"/><rect class="cls-6" x="680.35" y="99.66" width="0.59" height="5.6"/><path class="cls-6" d="M683.27,169.46a4.13,4.13,0,0,1-1.85,3.61l-.3-.37a4.06,4.06,0,0,0,0-6.46l.3-.36a4,4,0,0,1,1.85,3.58" transform="translate(0.7 -67.02)"/><polygon class="cls-13" points="105 971.35 73.74 934.01 105 896.68 167.51 896.68 198.77 934.01 167.51 971.35 105 971.35"/><polygon class="cls-13" points="105 886.92 73.74 849.59 105 812.25 167.51 812.25 198.77 849.59 167.51 886.92 105 886.92"/><polygon class="cls-13" points="105 802.5 73.74 765.16 105 727.83 167.51 727.83 198.77 765.16 167.51 802.5 105 802.5"/><polygon class="cls-13" points="105 718.07 73.74 680.74 105 643.4 167.51 643.4 198.77 680.74 167.51 718.07 105 718.07"/><polygon class="cls-13" points="105 633.64 73.74 596.31 105 558.98 167.51 558.98 198.77 596.31 167.51 633.64 105 633.64"/><polygon class="cls-13" points="105 549.22 73.74 511.88 105 474.55 167.51 474.55 198.77 511.88 167.51 549.22 105 549.22"/><polygon class="cls-13" points="105 464.79 73.74 427.46 105 390.12 167.51 390.12 198.77 427.46 167.51 464.79 105 464.79"/><polygon class="cls-13" points="105 380.37 73.74 343.03 105 305.7 167.51 305.7 198.77 343.03 167.51 380.37 105 380.37"/><polygon class="cls-13" points="105 295.94 73.74 258.61 105 221.27 167.51 221.27 198.77 258.61 167.51 295.94 105 295.94"/><polygon class="cls-13" points="105 211.52 73.74 174.18 105 136.85 167.51 136.85 198.77 174.18 167.51 211.52 105 211.52"/><polygon class="cls-13" points="208.91 1014.17 177.65 976.84 208.91 939.5 271.42 939.5 302.68 976.84 271.42 1014.17 208.91 1014.17"/><polygon class="cls-13" points="208.91 929.74 177.65 892.41 208.91 855.08 271.42 855.08 302.68 892.41 271.42 929.74 208.91 929.74"/><polygon class="cls-13" points="208.91 845.32 177.65 807.99 208.91 770.65 271.42 770.65 302.68 807.99 271.42 845.32 208.91 845.32"/><polygon class="cls-13" points="208.91 760.89 177.65 723.56 208.91 686.23 271.42 686.23 302.68 723.56 271.42 760.89 208.91 760.89"/><polygon class="cls-13" points="208.91 676.47 177.65 639.13 208.91 601.8 271.42 601.8 302.68 639.13 271.42 676.47 208.91 676.47"/><polygon class="cls-13" points="208.91 592.04 177.65 554.71 208.91 517.37 271.42 517.37 302.68 554.71 271.42 592.04 208.91 592.04"/><polygon class="cls-13" points="208.91 507.62 177.65 470.28 208.91 432.95 271.42 432.95 302.68 470.28 271.42 507.62 208.91 507.62"/><polygon class="cls-13" points="208.91 423.19 177.65 385.86 208.91 348.52 271.42 348.52 302.68 385.86 271.42 423.19 208.91 423.19"/><polygon class="cls-13" points="208.91 338.76 177.65 301.43 208.91 264.1 271.42 264.1 302.68 301.43 271.42 338.76 208.91 338.76"/><polygon class="cls-13" points="208.91 254.34 177.65 217.01 208.91 179.67 271.42 179.67 302.68 217.01 271.42 254.34 208.91 254.34"/><polygon class="cls-13" points="208.91 169.91 177.65 132.58 208.91 95.25 271.42 95.25 302.68 132.58 271.42 169.91 208.91 169.91"/><polygon class="cls-13" points="311.17 971.96 279.91 934.62 311.17 897.29 373.68 897.29 404.94 934.62 373.68 971.96 311.17 971.96"/><polygon class="cls-13" points="311.17 887.53 279.91 850.2 311.17 812.86 373.68 812.86 404.94 850.2 373.68 887.53 311.17 887.53"/><polygon class="cls-13" points="311.17 803.11 279.91 765.77 311.17 728.44 373.68 728.44 404.94 765.77 373.68 803.11 311.17 803.11"/><polygon class="cls-13" points="311.17 718.68 279.91 681.35 311.17 644.01 373.68 644.01 404.94 681.35 373.68 718.68 311.17 718.68"/><polygon class="cls-13" points="311.17 634.26 279.91 596.92 311.17 559.59 373.68 559.59 404.94 596.92 373.68 634.26 311.17 634.26"/><polygon class="cls-13" points="311.17 549.83 279.91 512.5 311.17 475.16 373.68 475.16 404.94 512.5 373.68 549.83 311.17 549.83"/><polygon class="cls-13" points="311.17 465.4 279.91 428.07 311.17 390.74 373.68 390.74 404.94 428.07 373.68 465.4 311.17 465.4"/><polygon class="cls-13" points="311.17 380.98 279.91 343.64 311.17 306.31 373.68 306.31 404.94 343.64 373.68 380.98 311.17 380.98"/><polygon class="cls-13" points="311.17 296.55 279.91 259.22 311.17 221.88 373.68 221.88 404.94 259.22 373.68 296.55 311.17 296.55"/><polygon class="cls-13" points="311.17 212.13 279.91 174.79 311.17 137.46 373.68 137.46 404.94 174.79 373.68 212.13 311.17 212.13"/><polygon class="cls-13" points="415.07 1014.78 383.82 977.45 415.07 940.11 477.59 940.11 508.85 977.45 477.59 1014.78 415.07 1014.78"/><polygon class="cls-13" points="415.07 930.36 383.82 893.02 415.07 855.69 477.59 855.69 508.85 893.02 477.59 930.36 415.07 930.36"/><polygon class="cls-13" points="415.07 845.93 383.82 808.6 415.07 771.26 477.59 771.26 508.85 808.6 477.59 845.93 415.07 845.93"/><polygon class="cls-13" points="415.07 761.51 383.82 724.17 415.07 686.84 477.59 686.84 508.85 724.17 477.59 761.51 415.07 761.51"/><polygon class="cls-13" points="415.07 677.08 383.82 639.75 415.07 602.41 477.59 602.41 508.85 639.75 477.59 677.08 415.07 677.08"/><polygon class="cls-13" points="415.07 592.65 383.82 555.32 415.07 517.99 477.59 517.99 508.85 555.32 477.59 592.65 415.07 592.65"/><polygon class="cls-13" points="415.07 508.23 383.82 470.89 415.07 433.56 477.59 433.56 508.85 470.89 477.59 508.23 415.07 508.23"/><polygon class="cls-13" points="415.07 423.8 383.82 386.47 415.07 349.13 477.59 349.13 508.85 386.47 477.59 423.8 415.07 423.8"/><polygon class="cls-13" points="415.07 339.38 383.82 302.04 415.07 264.71 477.59 264.71 508.85 302.04 477.59 339.38 415.07 339.38"/><polygon class="cls-13" points="415.07 254.95 383.82 217.62 415.07 180.28 477.59 180.28 508.85 217.62 477.59 254.95 415.07 254.95"/><polygon class="cls-13" points="415.07 170.53 383.82 133.19 415.07 95.86 477.59 95.86 508.85 133.19 477.59 170.53 415.07 170.53"/><polygon class="cls-13" points="517.34 972.21 486.08 934.87 517.34 897.54 579.85 897.54 611.11 934.87 579.85 972.21 517.34 972.21"/><polygon class="cls-13" points="517.34 887.78 486.08 850.45 517.34 813.11 579.85 813.11 611.11 850.45 579.85 887.78 517.34 887.78"/><polygon class="cls-13" points="517.34 803.36 486.08 766.02 517.34 728.69 579.85 728.69 611.11 766.02 579.85 803.36 517.34 803.36"/><polygon class="cls-13" points="517.34 718.93 486.08 681.6 517.34 644.26 579.85 644.26 611.11 681.6 579.85 718.93 517.34 718.93"/><polygon class="cls-13" points="517.34 634.51 486.08 597.17 517.34 559.84 579.85 559.84 611.11 597.17 579.85 634.51 517.34 634.51"/><polygon class="cls-13" points="517.34 550.08 486.08 512.75 517.34 475.41 579.85 475.41 611.11 512.75 579.85 550.08 517.34 550.08"/><polygon class="cls-13" points="517.34 465.65 486.08 428.32 517.34 390.99 579.85 390.99 611.11 428.32 579.85 465.65 517.34 465.65"/><polygon class="cls-13" points="517.34 381.23 486.08 343.89 517.34 306.56 579.85 306.56 611.11 343.89 579.85 381.23 517.34 381.23"/><polygon class="cls-13" points="517.34 296.8 486.08 259.47 517.34 222.13 579.85 222.13 611.11 259.47 579.85 296.8 517.34 296.8"/><polygon class="cls-13" points="517.34 212.38 486.08 175.04 517.34 137.71 579.85 137.71 611.11 175.04 579.85 212.38 517.34 212.38"/><polygon class="cls-13" points="621.24 1015.03 589.99 977.7 621.24 940.36 683.76 940.36 715.01 977.7 683.76 1015.03 621.24 1015.03"/><polygon class="cls-13" points="621.24 930.61 589.99 893.27 621.24 855.94 683.76 855.94 715.01 893.27 683.76 930.61 621.24 930.61"/><polygon class="cls-13" points="621.24 846.18 589.99 808.85 621.24 771.51 683.76 771.51 715.01 808.85 683.76 846.18 621.24 846.18"/><polygon class="cls-13" points="621.24 761.75 589.99 724.42 621.24 687.09 683.76 687.09 715.01 724.42 683.76 761.75 621.24 761.75"/><polygon class="cls-13" points="621.24 677.33 589.99 640 621.24 602.66 683.76 602.66 715.01 640 683.76 677.33 621.24 677.33"/><polygon class="cls-13" points="621.24 592.9 589.99 555.57 621.24 518.24 683.76 518.24 715.01 555.57 683.76 592.9 621.24 592.9"/><polygon class="cls-13" points="621.24 508.48 589.99 471.14 621.24 433.81 683.76 433.81 715.01 471.14 683.76 508.48 621.24 508.48"/><polygon class="cls-13" points="621.24 424.05 589.99 386.72 621.24 349.38 683.76 349.38 715.01 386.72 683.76 424.05 621.24 424.05"/><polygon class="cls-13" points="621.24 339.63 589.99 302.29 621.24 264.96 683.76 264.96 715.01 302.29 683.76 339.63 621.24 339.63"/><polygon class="cls-13" points="621.24 255.2 589.99 217.87 621.24 180.53 683.76 180.53 715.01 217.87 683.76 255.2 621.24 255.2"/><polygon class="cls-13" points="621.24 170.78 589.99 133.44 621.24 96.11 683.76 96.11 715.01 133.44 683.76 170.78 621.24 170.78"/><polygon class="cls-13" points="723.5 972.82 692.25 935.49 723.5 898.15 786.02 898.15 817.27 935.49 786.02 972.82 723.5 972.82"/><polygon class="cls-13" points="723.5 888.39 692.25 851.06 723.5 813.73 786.02 813.73 817.27 851.06 786.02 888.39 723.5 888.39"/><polygon class="cls-13" points="723.5 803.97 692.25 766.63 723.5 729.3 786.02 729.3 817.27 766.63 786.02 803.97 723.5 803.97"/><polygon class="cls-13" points="723.5 719.54 692.25 682.21 723.5 644.87 786.02 644.87 817.27 682.21 786.02 719.54 723.5 719.54"/><polygon class="cls-13" points="723.5 635.12 692.25 597.78 723.5 560.45 786.02 560.45 817.27 597.78 786.02 635.12 723.5 635.12"/><polygon class="cls-13" points="723.5 550.69 692.25 513.36 723.5 476.02 786.02 476.02 817.27 513.36 786.02 550.69 723.5 550.69"/><polygon class="cls-13" points="723.5 466.27 692.25 428.93 723.5 391.6 786.02 391.6 817.27 428.93 786.02 466.27 723.5 466.27"/><polygon class="cls-13" points="723.5 381.84 692.25 344.51 723.5 307.17 786.02 307.17 817.27 344.51 786.02 381.84 723.5 381.84"/><polygon class="cls-13" points="723.5 297.42 692.25 260.08 723.5 222.75 786.02 222.75 817.27 260.08 786.02 297.42 723.5 297.42"/><polygon class="cls-13" points="723.5 212.99 692.25 175.66 723.5 138.32 786.02 138.32 817.27 175.66 786.02 212.99 723.5 212.99"/></g><text class="cls-14" transform="translate(69.23 10.2)">Title: </text><g class="cls-5"><line class="cls-9" x1="102.12" y1="8.42" x2="807.01" y2="8.42"/></g><text class="cls-15" transform="translate(731.89 1079.1)">CC BY-NC-SA 4.0</text><text class="cls-16" transform="translate(10.58 1107.66)">githu<tspan class="cls-17" x="21.34" y="0">b.</tspan><tspan class="cls-18" x="27.98" y="0">com</tspan><tspan class="cls-19" x="46.09" y="0">/</tspan><tspan x="48.99" y="0">sjpiper14</tspan><tspan class="cls-20" x="85.23" y="0">5</tspan><tspan x="90.12" y="0">/Ma</tspan><tspan class="cls-21" x="106.21" y="0">k</tspan><tspan class="cls-18" x="110.64" y="0">erSkill</tspan><tspan class="cls-22" x="135.31" y="0">T</tspan><tspan class="cls-23" x="139.37" y="0">r</tspan><tspan x="142.53" y="0">ee</tspan></text><g class="cls-5"><path class="cls-7" d="M842.18,1067.05v53c-.3,0-.6,0-.91,0H754.49c-7,0-12.76-5.1-12.76-11.4v-30.23c0-6.3,5.71-11.4,12.76-11.4h86.78c.31,0,.61,0,.91,0" transform="translate(0.7 -67.02)"/><path class="cls-24" d="M842.18,1067.05v53c-.3,0-.6,0-.91,0H754.49c-7,0-12.76-5.1-12.76-11.4v-30.23c0-6.3,5.71-11.4,12.76-11.4h86.78C841.58,1067,841.88,1067,842.18,1067.05Z" transform="translate(0.7 -67.02)"/><path class="cls-6" d="M842.18,1101.68V1120c-.3,0-.6,0-.91,0H754.49c-7,0-12.76-5.1-12.76-11.4v-7Z" transform="translate(0.7 -67.02)"/></g><text class="cls-25" transform="translate(769.99 1047.7)"><tspan class="cls-26">T</tspan><tspan x="5.12" y="0">otal </tspan><tspan class="cls-27" x="26.84" y="0">S</tspan><tspan class="cls-28" x="32.82" y="0">c</tspan><tspan x="38.14" y="0">o</tspan><tspan class="cls-21" x="44.72" y="0">r</tspan><tspan x="48.54" y="0">e</tspan></text><text class="cls-29" transform="translate(770.14 996)">1 tile = 1 poi<tspan class="cls-30" x="47.52" y="0">n</tspan><tspan class="cls-31" x="52.63" y="0">t</tspan></text><g class="cls-5"><rect class="cls-6" x="299.04" y="13.39" width="245.21" height="28.04"/><rect class="cls-32" x="299.04" y="13.39" width="245.21" height="28.04"/></g><text class="cls-33" transform="translate(185.32 55.64)"><tspan class="cls-34">C</tspan><tspan class="cls-35" x="5.46" y="0">olor in the b</tspan><tspan class="cls-34" x="54.18" y="0">o</tspan><tspan class="cls-36" x="59.17" y="0">x</tspan><tspan x="63.47" y="0">es </tspan><tspan class="cls-37" x="74.7" y="0">o</tspan><tspan x="79.74" y="0">f an</tspan><tspan class="cls-38" x="95.56" y="0">y</tspan><tspan x="100.04" y="0">thing you</tspan><tspan class="cls-39" x="138.11" y="0">’</tspan><tspan x="140.35" y="0">ve al</tspan><tspan class="cls-40" x="159.22" y="0">r</tspan><tspan x="162.38" y="0">eady compl</tspan><tspan class="cls-41" x="209.63" y="0">e</tspan><tspan class="cls-42" x="214.59" y="0">t</tspan><tspan class="cls-35" x="217.99" y="0">ed, visuali</tspan><tspan class="cls-43" x="257.32" y="0">z</tspan><tspan class="cls-44" x="261.26" y="0">e your skills and ide</tspan><tspan class="cls-45" x="340.01" y="0">n</tspan><tspan x="345.08" y="0">ti</tspan><tspan class="cls-46" x="350.9" y="0">f</tspan><tspan class="cls-47" x="354.48" y="0" xml:space="preserve">y your skill gaps.  G</tspan><tspan class="cls-48" x="429.87" y="0">e</tspan><tspan x="434.82" y="0">t inspi</tspan><tspan class="cls-49" x="459.36" y="0">r</tspan><tspan class="cls-44" x="462.5" y="0">ed</tspan></text><text class="cls-33" transform="translate(227.92 67.58)"><tspan class="cls-40">t</tspan><tspan x="3.4" y="0">o t</tspan><tspan class="cls-50" x="14.29" y="0">r</tspan><tspan x="17.72" y="0">y new things and </tspan><tspan class="cls-41" x="88.11" y="0">t</tspan><tspan class="cls-51" x="91.61" y="0">ailor the skill t</tspan><tspan class="cls-52" x="148.65" y="0">r</tspan><tspan x="151.8" y="0">ee </tspan><tspan class="cls-49" x="164.13" y="0">t</tspan><tspan x="167.51" y="0">o suit your own journey by s</tspan><tspan class="cls-42" x="279.29" y="0">w</tspan><tspan class="cls-47" x="285.52" y="0">apping in your own goals.</tspan></text><text class="cls-53" transform="translate(303.69 34.22)">Skill <tspan class="cls-54" x="38.56" y="0">T</tspan><tspan class="cls-55" x="47.03" y="0">r</tspan><tspan x="53.64" y="0">ee: </tspan><tspan class="cls-56" x="83.27" y="0">C</tspan><tspan x="94.7" y="0">olor in the </tspan><tspan class="cls-57" x="185.94" y="0">Bo</tspan><tspan class="cls-58" x="207.42" y="0">x</tspan><tspan x="216.46" y="0">es </tspan></text></svg>